<svg width="88" height="88" viewBox="0 0 88 88" fill="none" xmlns="http://www.w3.org/2000/svg">
<g clip-path="url(#clip0_28_300)">
<path d="M88 0H0V88H88V0Z" fill="white"/>
<path fill-rule="evenodd" clip-rule="evenodd" d="M64.1666 47.6666C66.6651 47.6666 68.8152 47.6622 70.5624 47.8401C72.3708 48.0238 74.1502 48.433 75.7779 49.5205C76.9791 50.3231 78.0101 51.3542 78.8128 52.5554C79.9003 54.183 80.3095 55.9625 80.4932 57.7709C80.667 59.4766 80.6666 61.5659 80.6666 63.9884C80.6666 66.1771 80.715 68.3822 80.4932 70.5624C80.3095 72.3708 79.9003 74.1502 78.8128 75.7779C78.0101 76.9791 76.9791 78.0101 75.7779 78.8128C74.1502 79.9003 72.3708 80.3095 70.5624 80.4932C68.8567 80.667 66.7674 80.6666 64.3448 80.6666C62.1562 80.6666 59.9511 80.715 57.7709 80.4932C55.9625 80.3095 54.183 79.9003 52.5554 78.8128C51.3542 78.0101 50.3231 76.9791 49.5205 75.7779C48.433 74.1502 48.0238 72.3708 47.8401 70.5624C47.6622 68.8152 47.6666 66.6651 47.6666 64.1666C47.6666 61.6682 47.6622 59.518 47.8401 57.7709C48.0238 55.9625 48.433 54.183 49.5205 52.5554C50.3231 51.3542 51.3542 50.3231 52.5554 49.5205C54.183 48.433 55.9625 48.0238 57.7709 47.8401C59.518 47.6622 61.6682 47.6666 64.1666 47.6666Z" fill="#AC2624"/>
<path fill-rule="evenodd" clip-rule="evenodd" d="M23.8334 47.6666C26.3319 47.6666 28.4818 47.6622 30.2291 47.8401C32.0376 48.0238 33.8169 48.433 35.4447 49.5205C36.6457 50.3231 37.6769 51.3542 38.4795 52.5554C39.567 54.183 39.9762 55.9625 40.1599 57.7709C40.3337 59.4766 40.3334 61.5659 40.3334 63.9884C40.3334 66.1771 40.3818 68.3822 40.1599 70.5624C39.9762 72.3708 39.567 74.1502 38.4795 75.7779C37.6769 76.9791 36.6457 78.0101 35.4447 78.8128C33.8169 79.9003 32.0376 80.3095 30.2291 80.4932C28.5235 80.667 26.4342 80.6666 24.0115 80.6666C21.823 80.6666 19.618 80.715 17.4377 80.4932C15.6291 80.3095 13.8498 79.9003 12.2221 78.8128C11.021 78.0101 9.98977 76.9791 9.18721 75.7779C8.09964 74.1502 7.6907 72.3708 7.50671 70.5624C7.32895 68.8152 7.33338 66.6651 7.33338 64.1666C7.33338 61.6682 7.32895 59.518 7.50671 57.7709C7.6907 55.9625 8.09964 54.183 9.18721 52.5554C9.98977 51.3542 11.021 50.3231 12.2221 49.5205C13.8498 48.433 15.6291 48.0238 17.4377 47.8401C19.185 47.6622 21.3348 47.6666 23.8334 47.6666Z" fill="#AC2624"/>
<path fill-rule="evenodd" clip-rule="evenodd" d="M23.8334 7.33332C26.3319 7.33332 28.4818 7.32889 30.2291 7.50665C32.0376 7.69064 33.8169 8.09958 35.4447 9.18715C36.6457 9.98971 37.6769 11.021 38.4795 12.2221C39.567 13.8498 39.9762 15.6291 40.1599 17.4376C40.3337 19.1433 40.3334 21.2325 40.3334 23.6552C40.3334 25.8437 40.3818 28.0487 40.1599 30.229C39.9762 32.0376 39.567 33.8169 38.4795 35.4446C37.6769 36.6457 36.6457 37.6768 35.4447 38.4795C33.8169 39.567 32.0376 39.9762 30.2291 40.1599C28.5235 40.3337 26.4342 40.3333 24.0115 40.3333C21.823 40.3333 19.618 40.3817 17.4377 40.1599C15.6291 39.9762 13.8498 39.567 12.2221 38.4795C11.021 37.6768 9.98977 36.6457 9.18721 35.4446C8.09964 33.8169 7.6907 32.0376 7.50671 30.229C7.32895 28.4818 7.33338 26.3319 7.33338 23.8333C7.33338 21.3348 7.32895 19.1849 7.50671 17.4376C7.6907 15.6291 8.09964 13.8498 9.18721 12.2221C9.98977 11.021 11.021 9.98971 12.2221 9.18715C13.8498 8.09958 15.6291 7.69064 17.4377 7.50665C19.185 7.32889 21.3348 7.33332 23.8334 7.33332Z" fill="#AC2624"/>
<path fill-rule="evenodd" clip-rule="evenodd" d="M67.8333 11C67.8333 8.97495 66.1917 7.33331 64.1666 7.33331C62.1415 7.33331 60.5 8.97495 60.5 11V20.1666H51.3333C49.3082 20.1666 47.6666 21.8083 47.6666 23.8333C47.6666 25.8583 49.3082 27.5 51.3333 27.5H60.5V36.6666C60.5 38.6917 62.1415 40.3333 64.1666 40.3333C66.1917 40.3333 67.8333 38.6917 67.8333 36.6666V27.5H77C79.0251 27.5 80.6666 25.8583 80.6666 23.8333C80.6666 21.8083 79.0251 20.1666 77 20.1666H67.8333V11Z" fill="#AC2624"/>
</g>
<defs>
<clipPath id="clip0_28_300">
<rect width="88" height="88" fill="white"/>
</clipPath>
</defs>
</svg>
