<svg width="88" height="88" viewBox="0 0 88 88" fill="none" xmlns="http://www.w3.org/2000/svg">
<path fill-rule="evenodd" clip-rule="evenodd" d="M19.4851 55C13.2067 51.6691 10.7732 43.5104 11.0165 35.8828C24.8387 31.2484 37.152 24.5861 46.6426 13C56.5224 22.0759 60.6107 31.8276 61 48.0966C43.9171 45.8276 31.0197 49.8828 19.4851 55Z" fill="#AC2624"/>
<path fill-rule="evenodd" clip-rule="evenodd" d="M12.0171 43C12.0171 43 5.28406 45.4608 7.41783 50.3823C9.55142 55.3039 16 51.7752 16 51.7752C14.056 49.175 12.6808 46.1571 12.0171 43Z" fill="#AC2624"/>
<path fill-rule="evenodd" clip-rule="evenodd" d="M26 52.1774C29.4677 58.3423 31.7146 65.0763 32.6425 72L45 66.5938C41.3855 61.0927 38.5037 55.2125 36.4523 49C32.8868 49.8063 29.37 50.8969 26 52.1774Z" fill="#AC2624"/>
<path fill-rule="evenodd" clip-rule="evenodd" d="M48 16.2683C48 16.2683 61.5364 10.8908 66.131 22.2813C70.4291 32.987 57.3866 39 57.3866 39C56.3492 34.6982 52.5945 21.8902 48 16.2683Z" fill="#D02727"/>
<path fill-rule="evenodd" clip-rule="evenodd" d="M47.7667 15.3474L46 16.0679L47.1937 17.5571C51.5388 22.9375 55.0243 35.1872 55.9794 39.3185L56.3613 41L57.937 40.2793C60.2288 39.1264 62.3297 37.5892 64.1442 35.7157C65.9585 34.0344 67.2 31.7765 67.7253 29.3747C68.2503 26.9247 68.0117 24.3787 67.1044 22.0727C66.245 19.6708 64.6693 17.5571 62.5684 16.1159C60.4676 14.6747 57.9847 13.9542 55.4063 14.0023C52.8281 14.0023 50.2496 14.4346 47.7667 15.3474ZM50.5838 17.365C52.1595 16.9807 53.7829 16.7886 55.3585 16.7886C57.3639 16.6923 59.3215 17.269 60.945 18.4218C62.5684 19.5267 63.8576 21.16 64.5262 23.0335C65.2424 24.8591 65.4332 26.8285 65.0035 28.75C64.574 30.6716 63.5712 32.4011 62.1388 33.698C60.9927 34.8989 59.7037 35.956 58.2712 36.8205C56.6 30.0472 53.974 23.4659 50.5838 17.365Z" fill="#AC2624"/>
<path fill-rule="evenodd" clip-rule="evenodd" d="M22.4849 50C16.2067 46.6691 13.773 38.5103 14.0165 30.8827C27.8385 26.2483 40.1518 19.5862 49.6424 8C59.5224 17.0759 63.6107 26.8275 64 43.0965C46.917 40.8759 34.0195 44.931 22.4849 50Z" fill="white"/>
<path fill-rule="evenodd" clip-rule="evenodd" d="M21.2007 51.6596L21.8354 52L22.4702 51.7082C33.8472 46.6511 46.5426 42.6153 63.3398 44.852L65 45.0464V43.3932C64.6094 26.5201 60.3612 16.4058 50.1561 7.02114L49.0329 6L48.0564 7.16696C38.6812 18.6428 26.5718 25.2073 12.9486 29.7779L12.0208 30.1184V31.0909C11.7277 39.3572 14.5111 48.0613 21.2982 51.6596H21.2007ZM21.9819 48.7908C16.806 45.6299 14.7552 38.7738 14.804 32.1606C28.0366 27.5898 39.9019 21.0739 49.2283 10.1818C57.7244 18.4481 61.4842 27.4926 62.0214 41.8372C45.6639 40.0381 33.2125 43.8795 21.9819 48.7908Z" fill="#AC2624"/>
<path fill-rule="evenodd" clip-rule="evenodd" d="M14.0236 38C14.0236 38 7.25416 40.4608 9.43163 45.3823C11.5619 50.3039 18 46.7752 18 46.7752C16.0591 44.1752 14.6862 41.1571 14.0236 38Z" fill="#D02727"/>
<path fill-rule="evenodd" clip-rule="evenodd" d="M15.4378 37.5731L15.1639 36L13.6584 36.5551C12.4265 37.064 11.286 37.7581 10.2824 38.6371C9.23311 39.4235 8.50299 40.5802 8.18366 41.8292C7.86433 43.1246 7.95562 44.4663 8.50299 45.669C8.86814 46.6868 9.55243 47.5196 10.4648 48.121C11.3316 48.7223 12.3809 49 13.4304 49C15.2096 48.9538 16.989 48.5374 18.5856 47.7508L20 47.0569L19.0418 45.7615C17.2626 43.3096 16.0308 40.5339 15.4378 37.5731ZM13.2021 39.7936C13.841 41.9217 14.7077 44.0036 15.8939 45.9004C15.3921 46.0854 14.8902 46.1779 14.3883 46.2704C13.704 46.4556 12.9741 46.4093 12.3809 46.0854C11.7423 45.8078 11.2404 45.2989 10.921 44.6513C10.6473 43.9574 10.6017 43.2171 10.8297 42.5232C11.0123 41.8292 11.4686 41.2278 12.0159 40.7651C12.3809 40.4412 12.7915 40.1175 13.2021 39.8861V39.7936Z" fill="#AC2624"/>
<path fill-rule="evenodd" clip-rule="evenodd" d="M29.0977 47.3154C32.5655 53.7483 34.8612 60.7752 35.7404 68L48 62.3587C44.3857 56.668 41.5039 50.4824 39.4525 44C35.8868 44.8411 32.4191 45.9298 29 47.3154H29.0977Z" fill="white"/>
<path fill-rule="evenodd" clip-rule="evenodd" d="M28.4589 45.687L27 46.2848L27.6809 47.6797C31.0845 53.9573 33.2727 60.8327 34.148 67.9075L34.3426 70L50 62.7758L49.1247 61.3807C45.5749 55.751 42.7547 49.6228 40.7611 43.2457L40.3721 42L39.1078 42.299C35.4609 43.1461 31.9112 44.2919 28.4589 45.687ZM30.9388 47.7795C33.4187 46.8329 35.8986 46.0356 38.4271 45.388C40.2748 51.0179 42.7547 56.4484 45.7695 61.4805L36.7252 65.6656C35.7526 59.4378 33.759 53.4093 30.9388 47.7795Z" fill="#AC2624"/>
<path fill-rule="evenodd" clip-rule="evenodd" d="M17 29.4829C17.1933 36.5148 19.8502 43.2598 24.5362 48.5694C24.826 48.8565 25.1642 49 25.5506 49C25.9373 49 26.2754 48.8565 26.5652 48.5694C26.855 48.2823 27 47.9476 27 47.5649C27 47.1822 26.855 46.8474 26.5652 46.5603C22.3623 41.8247 19.9952 35.7495 19.8502 29.4351C19.8502 29.0524 19.7054 28.7176 19.4154 28.4305C19.174 28.1915 18.7875 28 18.401 28C18.0146 28 17.6764 28.1435 17.3865 28.4305C17.145 28.7176 17 29.0524 17 29.4829Z" fill="#AC2624"/>
<path fill-rule="evenodd" clip-rule="evenodd" d="M59.879 78.0875L54 64.1078L57.3804 62.5333L56.1556 59.5274C62.9163 58.9549 76.046 58.0483 77.7608 61.8175C79.4753 65.5869 71.5877 76.3698 66.4437 82L63.0633 76.6084L59.879 78.0875Z" fill="#AC2624"/>
<path fill-rule="evenodd" clip-rule="evenodd" d="M47.9084 69.9899C50.8168 67.5656 54.1196 65.5958 57.669 64.2828L59 63.7777L57.9647 61L56.6337 61.5555C52.7886 63.0202 49.2394 65.091 46.0844 67.7677L45 68.7271L46.824 71L47.9084 69.9899Z" fill="#AC2624"/>
<path fill-rule="evenodd" clip-rule="evenodd" d="M49.856 73.2092C52.5644 71.3953 55.5681 70.0001 58.6704 69.0234L60 68.5582L59.0151 66L57.6855 66.4651C54.2878 67.535 51.0378 69.0699 48.1325 71.0233L47 71.8139L48.6742 74L49.856 73.2092Z" fill="#AC2624"/>
<path fill-rule="evenodd" clip-rule="evenodd" d="M52.6562 76.3047C55.1701 74.9139 57.8735 73.8014 60.6719 73.0132L62 72.596L61.1462 70L59.8181 70.4172C56.7827 71.2516 53.8894 72.457 51.1859 73.9868L50 74.6822L51.4705 77L52.6562 76.3047Z" fill="#AC2624"/>
<path fill-rule="evenodd" clip-rule="evenodd" d="M61.8485 74.1684L56 60.1346L59.3629 58.5061L57.3159 53.1416C64.0416 52.5669 77.8832 53.6685 79.7351 57.7876C81.5872 61.9069 73.3018 72.3961 68.1357 78L65.1139 72.6357L61.8973 74.0726L61.8485 74.1684Z" fill="white"/>
<path fill-rule="evenodd" clip-rule="evenodd" d="M54 59.8139L60.8913 76.4739L64.2399 74.9331L67.5885 81L68.8989 79.5073C73.2665 74.8368 77.0034 69.6366 79.9637 63.9548C81.0313 62.0287 81.2741 59.8139 80.6917 57.6953C80.1094 56.7804 79.3813 55.9618 78.5079 55.2878C77.6344 54.6618 76.6151 54.1803 75.5475 53.9395C69.5297 52.3024 63.2694 51.6765 57.0089 52.158L55.1161 52.3506L57.3972 58.2731L54 59.9101V59.8139ZM62.3958 72.6701L57.6397 61.2103L60.9884 59.6214L59.1443 54.8062C64.3855 54.5656 69.5782 55.1915 74.6254 56.5879C75.499 56.8767 76.324 57.2138 77.1005 57.6953C77.5372 57.936 77.8769 58.3212 78.1195 58.7546C78.3623 59.4768 78.3623 60.2954 78.1195 61.0178C77.7313 62.3658 77.149 63.6178 76.4695 64.8215C74.1401 68.818 71.4225 72.5736 68.365 76.0405L65.5502 71.2737L62.3958 72.6701Z" fill="#AC2624"/>
<path fill-rule="evenodd" clip-rule="evenodd" d="M65.5001 61C66.4547 61 67.356 61.3182 67.9924 61.8637C68.6288 62.4091 69 63.1819 69 64.0001C69 64.8181 68.6288 65.5909 67.9924 66.1363C67.356 66.6818 66.4547 67 65.5001 67C64.5456 67 63.644 66.6818 63.0076 66.1363C62.3714 65.5909 62 64.8181 62 64.0001C62 63.1819 62.3714 62.4091 63.0076 61.8637C63.6971 61.3182 64.5986 61 65.5001 61Z" fill="#D02727"/>
<path fill-rule="evenodd" clip-rule="evenodd" d="M65.5318 60C64.6381 60 63.7444 60.2355 63.0389 60.7537C62.2864 61.2248 61.7219 61.9316 61.3457 62.7796C61.0165 63.6275 60.9224 64.5226 61.0635 65.3707C61.2516 66.2658 61.6749 67.0666 62.2864 67.679C62.8978 68.2916 63.7444 68.7627 64.591 68.904C65.4847 69.0924 66.3784 68.9982 67.2248 68.6683C68.0715 68.3387 68.7771 67.7263 69.2473 67.0195C69.7647 66.2658 70 65.4178 70 64.5226C70 63.3449 69.5296 62.2141 68.683 61.3663C67.8364 60.4711 66.7076 60 65.5318 60ZM65.5318 62.7323C65.7669 62.7323 66.0021 62.7796 66.1902 62.8738C66.3784 62.968 66.5664 63.1093 66.7546 63.2506C66.8956 63.392 67.0368 63.5804 67.1309 63.8161C67.2248 64.0044 67.2719 64.2399 67.2248 64.4755C67.2248 64.8054 67.1309 65.135 66.9427 65.4178C66.7546 65.7003 66.4723 65.8889 66.1902 66.0302C65.861 66.1715 65.5318 66.1715 65.2026 66.1244C64.8732 66.0773 64.591 65.8889 64.3559 65.6533C64.1207 65.4178 63.9797 65.135 63.8856 64.8054C63.8385 64.4755 63.8385 64.1457 63.9797 63.8161C64.1207 63.4862 64.3089 63.2506 64.591 63.0622C64.8732 62.8738 65.2026 62.7323 65.5318 62.7323Z" fill="#AC2624"/>
<path fill-rule="evenodd" clip-rule="evenodd" d="M69.4496 54.5058C72.8504 57.2081 74.9879 63.4479 75.0851 67.526C75.0851 67.9191 75.2309 68.2629 75.5223 68.5578C75.7652 68.8034 76.154 69 76.5426 69C76.9313 69 77.2713 68.8525 77.5628 68.5578C77.8056 68.312 78 67.9191 78 67.526C78 62.7108 75.2795 55.4392 71.2956 52.2947C71.15 52.1965 70.9556 52.0982 70.8098 52.0491C70.6156 52 70.4212 52 70.2269 52C70.0325 52 69.8383 52.0982 69.6925 52.1965C69.5468 52.2947 69.401 52.4422 69.2552 52.5896C69.061 52.8843 68.9638 53.2774 69.0124 53.6214C68.9638 53.9654 69.158 54.3092 69.4496 54.5058Z" fill="#AC2624"/>
</svg>
