<svg width="88" height="88" viewBox="0 0 88 88" fill="none" xmlns="http://www.w3.org/2000/svg">
<path d="M87.2994 59.1095H0.700878C0.610612 59.1096 0.521218 59.0919 0.437808 59.0574C0.354399 59.0229 0.278609 58.9723 0.214773 58.9084C0.150938 58.8446 0.100309 58.7688 0.0657809 58.6854C0.0312534 58.602 0.0135047 58.5126 0.0135499 58.4224C0.0135047 58.3321 0.0312521 58.2427 0.0657776 58.1593C0.100303 58.0759 0.15093 58.0001 0.214763 57.9363C0.278596 57.8724 0.354385 57.8218 0.437795 57.7873C0.521206 57.7527 0.610604 57.735 0.700878 57.735H87.2994C87.3897 57.735 87.4791 57.7528 87.5625 57.7873C87.6459 57.8218 87.7216 57.8724 87.7855 57.9363C87.8493 58.0001 87.8999 58.0759 87.9344 58.1593C87.9689 58.2427 87.9866 58.3321 87.9866 58.4224C87.9866 58.5126 87.9689 58.602 87.9343 58.6854C87.8998 58.7688 87.8492 58.8446 87.7854 58.9084C87.7216 58.9722 87.6458 59.0228 87.5624 59.0573C87.479 59.0918 87.3897 59.1096 87.2994 59.1095ZM44 65.9799C42.4844 65.9799 41.2508 64.7475 41.2508 63.2308C41.2508 61.714 42.4844 60.4816 44 60.4816C45.5156 60.4816 46.7493 61.714 46.7493 63.2308C46.7493 64.7475 45.5156 65.9799 44 65.9799ZM44 61.8563C43.2415 61.8563 42.6253 62.4736 42.6253 63.2308C42.6253 63.9879 43.2415 64.6052 44 64.6052C44.7583 64.6052 45.3746 63.9879 45.3746 63.2308C45.3746 62.4736 44.7583 61.8563 44 61.8563ZM32.3242 83.852C32.2213 83.8518 32.1198 83.8286 32.0271 83.784C31.9344 83.7395 31.8529 83.6747 31.7885 83.5945C31.7241 83.5143 31.6785 83.4207 31.6551 83.3205C31.6316 83.2204 31.6309 83.1163 31.653 83.0158L34.4021 70.6446C34.4841 70.2754 34.8492 70.0444 35.2223 70.1223C35.4002 70.162 35.555 70.2707 35.653 70.4244C35.7509 70.5782 35.7838 70.7644 35.7446 70.9424L32.9955 83.3137C32.9615 83.4664 32.8765 83.6029 32.7544 83.7008C32.6324 83.7986 32.4806 83.852 32.3242 83.852ZM55.6758 83.852C55.5194 83.8519 55.3677 83.7986 55.2457 83.7007C55.1237 83.6029 55.0387 83.4663 55.0048 83.3137L52.2558 70.9424C52.2165 70.7645 52.2494 70.5782 52.3473 70.4244C52.4451 70.2707 52.5999 70.162 52.7778 70.1223C53.1539 70.0444 53.516 70.2754 53.5978 70.6446L56.3471 83.0158C56.3693 83.1163 56.3686 83.2204 56.3451 83.3206C56.3217 83.4208 56.2761 83.5144 56.2117 83.5946C56.1473 83.6749 56.0657 83.7396 55.9729 83.7842C55.8802 83.8287 55.7787 83.8519 55.6758 83.852Z" fill="#AC2624"/>
<path d="M57.7461 83.852H30.2543C30.164 83.8521 30.0746 83.8343 29.9912 83.7998C29.9078 83.7653 29.832 83.7147 29.7681 83.6508C29.7043 83.587 29.6537 83.5112 29.6192 83.4278C29.5846 83.3443 29.5669 83.2549 29.567 83.1647C29.5669 83.0744 29.5847 82.985 29.6192 82.9016C29.6537 82.8182 29.7044 82.7424 29.7682 82.6786C29.832 82.6148 29.9078 82.5642 29.9912 82.5297C30.0746 82.4952 30.164 82.4774 30.2543 82.4775H57.7461C57.8363 82.4775 57.9257 82.4952 58.0091 82.5297C58.0925 82.5642 58.1682 82.6148 58.232 82.6787C58.2959 82.7425 58.3465 82.8183 58.381 82.9016C58.4155 82.985 58.4333 83.0744 58.4332 83.1647C58.4333 83.2549 58.4156 83.3443 58.381 83.4277C58.3465 83.5111 58.2959 83.5869 58.2321 83.6508C58.1683 83.7146 58.0925 83.7652 58.0091 83.7998C57.9257 83.8343 57.8363 83.852 57.7461 83.852ZM83.1755 55.0074H4.82454C4.73426 55.0075 4.64486 54.9897 4.56145 54.9552C4.47804 54.9207 4.40225 54.87 4.33842 54.8062C4.27459 54.7424 4.22396 54.6666 4.18943 54.5832C4.15491 54.4998 4.13716 54.4104 4.13721 54.3201V8.959C4.13716 8.86872 4.15491 8.77932 4.18943 8.69591C4.22396 8.6125 4.27459 8.53671 4.33842 8.47288C4.40225 8.40905 4.47804 8.35842 4.56145 8.3239C4.64486 8.28937 4.73426 8.27162 4.82454 8.27167H83.1755C83.5555 8.27167 83.863 8.57915 83.863 8.959V54.3201C83.863 54.4104 83.8453 54.4998 83.8107 54.5832C83.7762 54.6666 83.7255 54.7424 83.6617 54.8063C83.5978 54.8701 83.522 54.9207 83.4386 54.9552C83.3552 54.9897 83.2658 55.0075 83.1755 55.0074ZM5.51186 53.6328H82.4883V9.64632H5.51186V53.6328Z" fill="#AC2624"/>
<path d="M83.1754 68.7532H4.8245C2.17196 68.7532 0.0135498 66.5947 0.0135498 63.9423V8.95896C0.0135498 6.30642 2.17213 4.14801 4.8245 4.14801H83.1754C85.8282 4.14801 87.9866 6.30659 87.9866 8.95896V63.9421C87.9866 66.5947 85.828 68.7532 83.1754 68.7532ZM4.8245 5.52249C2.92907 5.52249 1.38803 7.06421 1.38803 8.95896V63.9421C1.38803 65.8374 2.92907 67.3784 4.8245 67.3784H83.1754C85.071 67.3784 86.6119 65.8374 86.6119 63.9421V8.95896C86.6119 7.06421 85.071 5.52249 83.1754 5.52249H4.8245Z" fill="#AC2624"/>
<path d="M83.1754 71.4809H4.8245C2.12641 71.4809 0.0135499 69.3681 0.0135499 66.67V63.9208C0.0135047 63.8306 0.0312521 63.7412 0.0657776 63.6578C0.100303 63.5743 0.15093 63.4986 0.214763 63.4347C0.278596 63.3709 0.354385 63.3203 0.437795 63.2857C0.521206 63.2512 0.610604 63.2335 0.700878 63.2335C0.791152 63.2335 0.88055 63.2512 0.96396 63.2857C1.04737 63.3203 1.12316 63.3709 1.18699 63.4347C1.25083 63.4986 1.30145 63.5743 1.33598 63.6578C1.3705 63.7412 1.38825 63.8306 1.38821 63.9208V66.67C1.38821 68.5976 2.8971 70.1063 4.82467 70.1063H83.1756C85.1035 70.1063 86.6121 68.5976 86.6121 66.67V63.9423C86.612 63.852 86.6298 63.7626 86.6643 63.6792C86.6989 63.5958 86.7495 63.52 86.8133 63.4561C86.8772 63.3923 86.953 63.3417 87.0364 63.3072C87.1199 63.2727 87.2093 63.2549 87.2996 63.255C87.3898 63.2549 87.4792 63.2727 87.5626 63.3072C87.646 63.3418 87.7218 63.3924 87.7856 63.4562C87.8494 63.5201 87.9001 63.5958 87.9346 63.6793C87.9691 63.7627 87.9868 63.8521 87.9867 63.9423V66.67C87.9866 69.3681 85.8737 71.4809 83.1754 71.4809ZM7.57364 55.0074C7.48337 55.0074 7.39397 54.9897 7.31056 54.9552C7.22715 54.9206 7.15136 54.87 7.08753 54.8062C7.02369 54.7424 6.97307 54.6666 6.93854 54.5832C6.90402 54.4997 6.88627 54.4103 6.88632 54.3201V8.959C6.88627 8.86872 6.90402 8.77932 6.93854 8.69591C6.97307 8.6125 7.02369 8.53671 7.08753 8.47288C7.15136 8.40905 7.22715 8.35842 7.31056 8.3239C7.39397 8.28937 7.48337 8.27162 7.57364 8.27167C7.66392 8.27162 7.75331 8.28937 7.83673 8.3239C7.92014 8.35842 7.99592 8.40905 8.05976 8.47288C8.12359 8.53671 8.17422 8.6125 8.20874 8.69591C8.24327 8.77932 8.26102 8.86872 8.26097 8.959V54.3201C8.26102 54.4103 8.24327 54.4997 8.20874 54.5832C8.17422 54.6666 8.12359 54.7424 8.05976 54.8062C7.99592 54.87 7.92014 54.9206 7.83673 54.9552C7.75331 54.9897 7.66392 55.0074 7.57364 55.0074Z" fill="#AC2624"/>
<path d="M6.19919 13.7699H4.82454C4.44469 13.7699 4.13721 13.4626 4.13721 13.0826C4.13721 12.7026 4.44469 12.3953 4.82454 12.3953H6.19919C6.57904 12.3953 6.88652 12.7026 6.88652 13.0826C6.88652 13.4626 6.57904 13.7699 6.19919 13.7699ZM6.19919 17.8937H4.82454C4.44469 17.8937 4.13721 17.5862 4.13721 17.2064C4.13721 16.8265 4.44469 16.5191 4.82454 16.5191H6.19919C6.57904 16.5191 6.88652 16.8265 6.88652 17.2064C6.88652 17.5862 6.57904 17.8937 6.19919 17.8937ZM6.19919 22.0175H4.82454C4.44469 22.0175 4.13721 21.7102 4.13721 21.3302C4.13721 20.9502 4.44469 20.6429 4.82454 20.6429H6.19919C6.57904 20.6429 6.88652 20.9502 6.88652 21.3302C6.88652 21.7102 6.57904 22.0175 6.19919 22.0175ZM6.19919 26.1413H4.82454C4.44469 26.1413 4.13721 25.8338 4.13721 25.454C4.13721 25.0741 4.44469 24.7667 4.82454 24.7667H6.19919C6.57904 24.7667 6.88652 25.0741 6.88652 25.454C6.88652 25.8338 6.57904 26.1413 6.19919 26.1413ZM6.19919 30.2649H4.82454C4.44469 30.2649 4.13721 29.9576 4.13721 29.5776C4.13721 29.1976 4.44469 28.8903 4.82454 28.8903H6.19919C6.57904 28.8903 6.88652 29.1976 6.88652 29.5776C6.88652 29.9576 6.57904 30.2649 6.19919 30.2649ZM6.19919 34.3887H4.82454C4.73426 34.3888 4.64486 34.371 4.56145 34.3365C4.47804 34.302 4.40225 34.2514 4.33842 34.1875C4.27459 34.1237 4.22396 34.0479 4.18943 33.9645C4.15491 33.8811 4.13716 33.7917 4.13721 33.7014C4.13716 33.6111 4.15491 33.5217 4.18943 33.4383C4.22396 33.3549 4.27459 33.2791 4.33842 33.2153C4.40225 33.1515 4.47804 33.1008 4.56145 33.0663C4.64486 33.0318 4.73426 33.014 4.82454 33.0141H6.19919C6.28947 33.014 6.37886 33.0318 6.46227 33.0663C6.54569 33.1008 6.62147 33.1515 6.68531 33.2153C6.74914 33.2791 6.79977 33.3549 6.83429 33.4383C6.86882 33.5217 6.88657 33.6111 6.88652 33.7014C6.88654 33.7917 6.86878 33.8811 6.83425 33.9645C6.79971 34.0479 6.74908 34.1236 6.68526 34.1875C6.62143 34.2513 6.54565 34.3019 6.46225 34.3365C6.37885 34.371 6.28946 34.3888 6.19919 34.3887ZM6.19919 38.5124H4.82454C4.73426 38.5124 4.64486 38.4947 4.56145 38.4601C4.47804 38.4256 4.40225 38.375 4.33842 38.3111C4.27459 38.2473 4.22396 38.1715 4.18943 38.0881C4.15491 38.0047 4.13716 37.9153 4.13721 37.825C4.13716 37.7348 4.15491 37.6454 4.18943 37.5619C4.22396 37.4785 4.27459 37.4027 4.33842 37.3389C4.40225 37.2751 4.47804 37.2245 4.56145 37.1899C4.64486 37.1554 4.73426 37.1377 4.82454 37.1377H6.19919C6.28947 37.1377 6.37886 37.1554 6.46227 37.1899C6.54569 37.2245 6.62147 37.2751 6.68531 37.3389C6.74914 37.4027 6.79977 37.4785 6.83429 37.5619C6.86882 37.6454 6.88657 37.7348 6.88652 37.825C6.88657 37.9153 6.86882 38.0047 6.83429 38.0881C6.79977 38.1715 6.74914 38.2473 6.68531 38.3111C6.62147 38.375 6.54569 38.4256 6.46227 38.4601C6.37886 38.4947 6.28947 38.5124 6.19919 38.5124ZM6.19919 42.6362H4.82454C4.73426 42.6362 4.64486 42.6185 4.56145 42.5839C4.47804 42.5494 4.40225 42.4988 4.33842 42.4349C4.27459 42.3711 4.22396 42.2953 4.18943 42.2119C4.15491 42.1285 4.13716 42.0391 4.13721 41.9488C4.13716 41.8586 4.15491 41.7692 4.18943 41.6857C4.22396 41.6023 4.27459 41.5265 4.33842 41.4627C4.40225 41.3989 4.47804 41.3483 4.56145 41.3137C4.64486 41.2792 4.73426 41.2615 4.82454 41.2615H6.19919C6.28947 41.2615 6.37886 41.2792 6.46227 41.3137C6.54569 41.3483 6.62147 41.3989 6.68531 41.4627C6.74914 41.5265 6.79977 41.6023 6.83429 41.6857C6.86882 41.7692 6.88657 41.8586 6.88652 41.9488C6.88654 42.0391 6.86878 42.1285 6.83425 42.2119C6.79971 42.2953 6.74908 42.3711 6.68526 42.4349C6.62143 42.4987 6.54565 42.5493 6.46225 42.5839C6.37885 42.6184 6.28946 42.6362 6.19919 42.6362ZM6.19919 46.76H4.82454C4.73426 46.76 4.64486 46.7422 4.56145 46.7077C4.47804 46.6732 4.40225 46.6226 4.33842 46.5587C4.27459 46.4949 4.22396 46.4191 4.18943 46.3357C4.15491 46.2523 4.13716 46.1629 4.13721 46.0726C4.13716 45.9824 4.15491 45.893 4.18944 45.8096C4.22397 45.7262 4.2746 45.6504 4.33843 45.5866C4.40227 45.5228 4.47806 45.4721 4.56147 45.4376C4.64488 45.4031 4.73427 45.3854 4.82454 45.3855H6.19919C6.28946 45.3854 6.37885 45.4031 6.46226 45.4376C6.54567 45.4721 6.62146 45.5228 6.6853 45.5866C6.74913 45.6504 6.79976 45.7262 6.83429 45.8096C6.86882 45.893 6.88657 45.9824 6.88652 46.0726C6.88657 46.1629 6.86882 46.2523 6.83429 46.3357C6.79977 46.4191 6.74914 46.4949 6.68531 46.5587C6.62147 46.6226 6.54569 46.6732 6.46227 46.7077C6.37886 46.7422 6.28947 46.76 6.19919 46.76ZM6.19919 50.8837H4.82454C4.44469 50.8837 4.13721 50.5763 4.13721 50.1964C4.13721 49.8166 4.44469 49.5091 4.82454 49.5091H6.19919C6.57904 49.5091 6.88652 49.8166 6.88652 50.1964C6.88652 50.5763 6.57904 50.8837 6.19919 50.8837ZM17.1958 13.7699H11.6975C11.3176 13.7699 11.0101 13.4626 11.0101 13.0826C11.0101 12.7026 11.3175 12.3953 11.6975 12.3953H17.1958C17.5756 12.3953 17.8831 12.7026 17.8831 13.0826C17.8831 13.4626 17.5756 13.7699 17.1958 13.7699ZM39.1889 17.8937H22.694C22.3142 17.8937 22.0067 17.5862 22.0067 17.2064C22.0067 16.8265 22.314 16.5191 22.694 16.5191H39.1889C39.5689 16.5191 39.8762 16.8265 39.8762 17.2064C39.8762 17.5862 39.5689 17.8937 39.1889 17.8937ZM19.9449 17.8937H13.072C12.6921 17.8937 12.3846 17.5862 12.3846 17.2064C12.3846 16.8265 12.6921 16.5191 13.072 16.5191H19.9449C20.3247 16.5191 20.6322 16.8265 20.6322 17.2064C20.6322 17.5862 20.3247 17.8937 19.9449 17.8937ZM39.1889 22.0175H37.8144C37.4346 22.0175 37.1271 21.7102 37.1271 21.3302C37.1271 20.9502 37.4346 20.6429 37.8144 20.6429H39.1889C39.5689 20.6429 39.8762 20.9502 39.8762 21.3302C39.8762 21.7102 39.5689 22.0175 39.1889 22.0175ZM35.0653 22.0175H14.4466C14.0668 22.0175 13.7593 21.7102 13.7593 21.3302C13.7593 20.9502 14.0666 20.6429 14.4466 20.6429H35.0653C35.4451 20.6429 35.7526 20.9502 35.7526 21.3302C35.7526 21.7102 35.4451 22.0175 35.0653 22.0175ZM18.5702 30.2649H14.4466C14.0668 30.2649 13.7593 29.9576 13.7593 29.5776C13.7593 29.1976 14.0666 28.8903 14.4466 28.8903H18.5704C18.9503 28.8903 19.2577 29.1976 19.2577 29.5776C19.2577 29.9576 18.9501 30.2649 18.5702 30.2649ZM39.1889 30.2649H21.3196C20.9397 30.2649 20.6322 29.9576 20.6322 29.5776C20.6322 29.1976 20.9397 28.8903 21.3196 28.8903H39.1891C39.5691 28.8903 39.8764 29.1976 39.8764 29.5776C39.8764 29.9576 39.5689 30.2649 39.1889 30.2649ZM39.1889 26.1413H15.8211C15.4413 26.1413 15.1338 25.8338 15.1338 25.454C15.1338 25.0741 15.4413 24.7667 15.8211 24.7667H39.1889C39.5689 24.7667 39.8762 25.0741 39.8762 25.454C39.8762 25.8338 39.5689 26.1413 39.1889 26.1413ZM39.1889 34.3887H33.6906C33.6003 34.3888 33.5109 34.371 33.4275 34.3365C33.3441 34.302 33.2683 34.2514 33.2045 34.1875C33.1406 34.1237 33.09 34.0479 33.0555 33.9645C33.021 33.8811 33.0032 33.7917 33.0033 33.7014C33.0032 33.6111 33.021 33.5217 33.0555 33.4383C33.09 33.3549 33.1406 33.2791 33.2045 33.2153C33.2683 33.1515 33.3441 33.1008 33.4275 33.0663C33.5109 33.0318 33.6003 33.014 33.6906 33.0141H39.1889C39.2792 33.014 39.3686 33.0318 39.452 33.0663C39.5354 33.1008 39.6112 33.1515 39.675 33.2153C39.7388 33.2791 39.7895 33.3549 39.824 33.4383C39.8585 33.5217 39.8763 33.6111 39.8762 33.7014C39.8763 33.7917 39.8585 33.8811 39.824 33.9645C39.7895 34.0479 39.7388 34.1237 39.675 34.1875C39.6112 34.2514 39.5354 34.302 39.452 34.3365C39.3686 34.371 39.2792 34.3888 39.1889 34.3887ZM35.0653 38.5124H13.072C12.9817 38.5124 12.8923 38.4947 12.8089 38.4601C12.7255 38.4256 12.6497 38.375 12.5858 38.3111C12.522 38.2473 12.4714 38.1715 12.4369 38.0881C12.4023 38.0047 12.3846 37.9153 12.3846 37.825C12.3846 37.7348 12.4023 37.6454 12.4369 37.5619C12.4714 37.4785 12.522 37.4027 12.5858 37.3389C12.6497 37.2751 12.7255 37.2245 12.8089 37.1899C12.8923 37.1554 12.9817 37.1377 13.072 37.1377H35.0653C35.1555 37.1377 35.2449 37.1554 35.3283 37.1899C35.4117 37.2245 35.4875 37.2751 35.5514 37.3389C35.6152 37.4027 35.6658 37.4785 35.7004 37.5619C35.7349 37.6454 35.7526 37.7348 35.7526 37.825C35.7526 37.9153 35.7349 38.0047 35.7004 38.0881C35.6658 38.1715 35.6152 38.2473 35.5514 38.3111C35.4875 38.375 35.4117 38.4256 35.3283 38.4601C35.2449 38.4947 35.1555 38.5124 35.0653 38.5124ZM24.0687 46.76H13.0721C12.9819 46.76 12.8925 46.7422 12.809 46.7077C12.7256 46.6732 12.6498 46.6226 12.586 46.5587C12.5222 46.4949 12.4716 46.4191 12.437 46.3357C12.4025 46.2523 12.3848 46.1629 12.3848 46.0726C12.3848 45.9824 12.4025 45.893 12.437 45.8096C12.4716 45.7262 12.5222 45.6504 12.586 45.5866C12.6499 45.5228 12.7256 45.4721 12.8091 45.4376C12.8925 45.4031 12.9819 45.3854 13.0721 45.3855H24.0687C24.159 45.3854 24.2484 45.4031 24.3318 45.4376C24.4152 45.4721 24.491 45.5228 24.5548 45.5866C24.6186 45.6504 24.6693 45.7262 24.7038 45.8096C24.7383 45.893 24.7561 45.9824 24.756 46.0726C24.7561 46.1629 24.7383 46.2523 24.7038 46.3357C24.6693 46.4191 24.6186 46.4949 24.5548 46.5587C24.491 46.6226 24.4152 46.6732 24.3318 46.7077C24.2484 46.7422 24.159 46.76 24.0687 46.76ZM39.1889 42.6362H32.3161C32.2258 42.6362 32.1364 42.6185 32.053 42.5839C31.9696 42.5494 31.8938 42.4988 31.83 42.4349C31.7662 42.3711 31.7155 42.2953 31.681 42.2119C31.6465 42.1285 31.6287 42.0391 31.6288 41.9488C31.6287 41.8586 31.6465 41.7692 31.681 41.6857C31.7155 41.6023 31.7662 41.5265 31.83 41.4627C31.8938 41.3989 31.9696 41.3483 32.053 41.3137C32.1364 41.2792 32.2258 41.2615 32.3161 41.2615H39.1889C39.2792 41.2615 39.3686 41.2792 39.452 41.3137C39.5354 41.3483 39.6112 41.3989 39.675 41.4627C39.7388 41.5265 39.7895 41.6023 39.824 41.6857C39.8585 41.7692 39.8763 41.8586 39.8762 41.9488C39.8763 42.0391 39.8585 42.1285 39.824 42.2119C39.7895 42.2953 39.7388 42.3711 39.675 42.4349C39.6112 42.4988 39.5354 42.5494 39.452 42.5839C39.3686 42.6185 39.2792 42.6362 39.1889 42.6362ZM29.567 42.6362H14.4466C14.3563 42.6362 14.2669 42.6185 14.1835 42.5839C14.1001 42.5494 14.0243 42.4988 13.9605 42.4349C13.8967 42.3711 13.846 42.2953 13.8115 42.2119C13.777 42.1285 13.7592 42.0391 13.7593 41.9488C13.7592 41.8586 13.777 41.7692 13.8115 41.6857C13.846 41.6023 13.8967 41.5265 13.9605 41.4627C14.0243 41.3989 14.1001 41.3483 14.1835 41.3137C14.2669 41.2792 14.3563 41.2615 14.4466 41.2615H29.567C29.6572 41.2615 29.7466 41.2792 29.8301 41.3137C29.9135 41.3483 29.9893 41.3989 30.0531 41.4627C30.1169 41.5265 30.1675 41.6023 30.2021 41.6857C30.2366 41.7692 30.2543 41.8586 30.2543 41.9488C30.2543 42.0391 30.2366 42.1285 30.2021 42.2119C30.1675 42.2953 30.1169 42.3711 30.0531 42.4349C29.9893 42.4988 29.9135 42.5494 29.8301 42.5839C29.7466 42.6185 29.6572 42.6362 29.567 42.6362ZM17.1958 50.8837H11.6975C11.3176 50.8837 11.0101 50.5763 11.0101 50.1964C11.0101 49.8166 11.3175 49.5091 11.6975 49.5091H17.1958C17.5756 49.5091 17.8831 49.8166 17.8831 50.1964C17.8831 50.5763 17.5756 50.8837 17.1958 50.8837ZM39.1889 38.5124H37.8144C37.7241 38.5124 37.6347 38.4947 37.5513 38.4601C37.4679 38.4256 37.3921 38.375 37.3283 38.3111C37.2644 38.2473 37.2138 38.1715 37.1793 38.0881C37.1448 38.0047 37.127 37.9153 37.1271 37.825C37.127 37.7348 37.1448 37.6454 37.1793 37.5619C37.2138 37.4785 37.2644 37.4027 37.3283 37.3389C37.3921 37.2751 37.4679 37.2245 37.5513 37.1899C37.6347 37.1554 37.7241 37.1377 37.8144 37.1377H39.1889C39.2792 37.1377 39.3686 37.1554 39.452 37.1899C39.5354 37.2245 39.6112 37.2751 39.675 37.3389C39.7388 37.4027 39.7895 37.4785 39.824 37.5619C39.8585 37.6454 39.8763 37.7348 39.8762 37.825C39.8763 37.9153 39.8585 38.0047 39.824 38.0881C39.7895 38.1716 39.7389 38.2474 39.675 38.3112C39.6112 38.375 39.5354 38.4257 39.452 38.4602C39.3686 38.4947 39.2792 38.5124 39.1889 38.5124ZM30.9415 34.3887H14.4466C14.3563 34.3888 14.2669 34.371 14.1835 34.3365C14.1001 34.302 14.0243 34.2514 13.9605 34.1875C13.8967 34.1237 13.846 34.0479 13.8115 33.9645C13.777 33.8811 13.7592 33.7917 13.7593 33.7014C13.7592 33.6111 13.777 33.5217 13.8115 33.4383C13.846 33.3549 13.8967 33.2791 13.9605 33.2153C14.0243 33.1515 14.1001 33.1008 14.1835 33.0663C14.2669 33.0318 14.3563 33.014 14.4466 33.0141H30.9416C31.0319 33.014 31.1213 33.0318 31.2047 33.0663C31.2881 33.1008 31.3639 33.1515 31.4277 33.2153C31.4916 33.2791 31.5422 33.3549 31.5767 33.4383C31.6113 33.5217 31.629 33.6111 31.629 33.7014C31.629 33.7917 31.6112 33.8811 31.5767 33.9645C31.5421 34.0479 31.4915 34.1237 31.4276 34.1875C31.3638 34.2514 31.288 34.302 31.2046 34.3365C31.1211 34.371 31.0317 34.3888 30.9415 34.3887Z" fill="#AC2624"/>
<path d="M44 55.0074C43.9097 55.0074 43.8203 54.9897 43.7369 54.9552C43.6535 54.9206 43.5777 54.87 43.5139 54.8062C43.4501 54.7424 43.3994 54.6666 43.3649 54.5832C43.3304 54.4997 43.3126 54.4103 43.3127 54.3201V8.959C43.3126 8.86872 43.3304 8.77932 43.3649 8.69591C43.3994 8.6125 43.4501 8.53671 43.5139 8.47288C43.5777 8.40905 43.6535 8.35842 43.7369 8.3239C43.8203 8.28937 43.9097 8.27162 44 8.27167C44.0903 8.27162 44.1797 8.28937 44.2631 8.3239C44.3465 8.35843 44.4222 8.40906 44.4861 8.47289C44.5499 8.53673 44.6005 8.61252 44.635 8.69593C44.6695 8.77934 44.6872 8.86873 44.6872 8.959V54.3201C44.6872 54.4103 44.6695 54.4997 44.635 54.5831C44.6005 54.6666 44.5499 54.7423 44.4861 54.8062C44.4222 54.87 44.3465 54.9206 44.2631 54.9552C44.1797 54.9897 44.0903 55.0074 44 55.0074Z" fill="#AC2624"/>
<path d="M77.677 46.76C77.5626 46.76 77.45 46.7314 77.3494 46.6768C77.2488 46.6222 77.1635 46.5433 77.1012 46.4473L68.7421 33.5882L60.3833 46.4473C60.1779 46.768 59.7498 46.8554 59.433 46.65C59.2802 46.5504 59.1732 46.3942 59.1355 46.2158C59.0977 46.0374 59.1323 45.8513 59.2316 45.6983L68.1663 31.9524C68.4188 31.5619 69.0656 31.5619 69.3181 31.9524L78.2528 45.6983C78.3521 45.8513 78.3867 46.0374 78.3489 46.2158C78.3111 46.3942 78.2041 46.5504 78.0514 46.65C77.9362 46.7249 77.8059 46.76 77.677 46.76Z" fill="#AC2624"/>
<path d="M54.3094 46.76C54.185 46.76 54.0629 46.7262 53.9562 46.6623C53.8494 46.5984 53.7621 46.5067 53.7033 46.397C53.6446 46.2873 53.6168 46.1638 53.6228 46.0395C53.6288 45.9152 53.6684 45.7949 53.7374 45.6914L59.2357 37.4521C59.2985 37.358 59.3835 37.2809 59.4833 37.2275C59.583 37.1742 59.6944 37.1462 59.8075 37.1462C59.9206 37.1462 60.032 37.1742 60.1317 37.2275C60.2315 37.2809 60.3165 37.358 60.3793 37.4521L63.0884 41.5126C63.1895 41.6643 63.2261 41.8499 63.1904 42.0286C63.1547 42.2073 63.0494 42.3645 62.8978 42.4657C62.5822 42.6736 62.1557 42.5918 61.9448 42.2751L59.8077 39.0715L54.8811 46.4539C54.8184 46.548 54.7334 46.6252 54.6336 46.6786C54.5339 46.7321 54.4225 46.76 54.3094 46.76ZM54.3094 37.1379C52.4138 37.1379 50.8729 35.5962 50.8729 33.7014C50.8729 31.8067 52.4138 30.265 54.3094 30.265C56.2047 30.265 57.7459 31.8067 57.7459 33.7014C57.746 35.5962 56.2048 37.1379 54.3094 37.1379ZM54.3094 31.6396C53.1724 31.6396 52.2476 32.5645 52.2476 33.7014C52.2476 34.8384 53.1724 35.7632 54.3094 35.7632C55.4463 35.7632 56.3712 34.8384 56.3712 33.7014C56.3712 32.5645 55.4465 31.6396 54.3094 31.6396Z" fill="#AC2624"/>
<path d="M79.0519 46.76H48.8112C48.4311 46.76 48.1237 46.4527 48.1237 46.0726V28.2031C48.1236 28.1128 48.1414 28.0234 48.1759 27.94C48.2104 27.8566 48.2611 27.7808 48.3249 27.717C48.3888 27.6531 48.4646 27.6025 48.548 27.568C48.6315 27.5335 48.7209 27.5157 48.8112 27.5158H79.0517C79.142 27.5158 79.2314 27.5335 79.3148 27.568C79.3982 27.6026 79.4739 27.6532 79.5378 27.717C79.6016 27.7809 79.6522 27.8567 79.6867 27.9401C79.7212 28.0235 79.7389 28.1129 79.7389 28.2031V46.0726C79.739 46.1629 79.7213 46.2523 79.6868 46.3357C79.6523 46.4191 79.6017 46.4949 79.5379 46.5588C79.4741 46.6226 79.3983 46.6733 79.3149 46.7078C79.2315 46.7423 79.1421 46.76 79.0519 46.76ZM49.4983 45.3855H78.3645V28.8905H49.4983V45.3855Z" fill="#AC2624"/>
<path d="M79.0519 13.7699H48.8112C48.4311 13.7699 48.1237 13.4626 48.1237 13.0826C48.1237 12.7026 48.4311 12.3953 48.8112 12.3953H79.0517C79.4317 12.3953 79.7389 12.7026 79.7389 13.0826C79.7389 13.4626 79.4317 13.7699 79.0519 13.7699Z" fill="#AC2624"/>
<path d="M79.0518 24.7667C78.9616 24.7667 78.8722 24.749 78.7888 24.7145C78.7053 24.68 78.6296 24.6293 78.5657 24.5655C78.5019 24.5017 78.4513 24.4259 78.4168 24.3424C78.3823 24.259 78.3646 24.1696 78.3647 24.0793V13.0828C78.3647 12.7029 78.6718 12.3954 79.0518 12.3954C79.4319 12.3954 79.739 12.7028 79.739 13.0828V24.0793C79.7391 24.1696 79.7213 24.259 79.6868 24.3424C79.6523 24.4258 79.6017 24.5016 79.5379 24.5654C79.4741 24.6293 79.3983 24.6799 79.3149 24.7144C79.2315 24.749 79.1421 24.7667 79.0518 24.7667Z" fill="#AC2624"/>
<path d="M79.0519 24.7667H48.8112C48.4311 24.7667 48.1237 24.4594 48.1237 24.0794C48.1237 23.6993 48.4311 23.392 48.8112 23.392H79.0517C79.4317 23.392 79.7389 23.6993 79.7389 24.0794C79.7389 24.4594 79.4317 24.7667 79.0519 24.7667Z" fill="#AC2624"/>
<path d="M74.9281 19.2682H48.8112C48.4311 19.2682 48.1237 18.9609 48.1237 18.5809C48.1237 18.2009 48.4311 17.8936 48.8112 17.8936H74.9281C75.3078 17.8936 75.6152 18.2009 75.6152 18.5809C75.6152 18.9609 75.3078 19.2682 74.9281 19.2682Z" fill="#AC2624"/>
<path d="M79.0519 50.8837H48.8112C48.4311 50.8837 48.1237 50.5763 48.1237 50.1964C48.1237 49.8166 48.4311 49.5091 48.8112 49.5091H79.0517C79.4317 49.5091 79.7389 49.8166 79.7389 50.1964C79.7389 50.5763 79.4317 50.8837 79.0519 50.8837Z" fill="#AC2624"/>
</svg>
