<svg width="88" height="88" viewBox="0 0 88 88" fill="none" xmlns="http://www.w3.org/2000/svg">
<g clip-path="url(#clip0_28_388)">
<path d="M43.377 0.0214844C31.7754 0.193359 16.1777 4.42578 16.4355 18.0469C16.7148 32.291 32.5059 27.1992 33.7949 33C33.9883 32.7637 34.2676 32.5488 34.4609 32.3125C35.5566 31.1523 36.6309 30.1855 37.7266 29.0469C39.4453 27.1133 41.2285 25.3301 43.0332 23.375C49.1348 16.9082 49.3926 16.5 63.9375 5.5C58.2441 2.10547 51.498 0.214844 45.7832 0.0214844C45.0527 0 44.1719 0 43.377 0.0214844ZM77.1719 0.0214844C67.2891 7.1543 54.0547 18.1758 43.5488 29.3477C42.6035 30.3574 41.6797 31.3457 40.7773 32.3555C40.2188 32.957 39.6172 33.4297 39.0586 34.0527C38.6934 34.4824 38.3496 34.9336 38.0059 35.3633C30.8516 43.2695 23.8047 52.5723 17.9395 61.123C16.2422 60.2637 14.0938 60.1777 11.7949 61.6816C7.64844 64.4102 8.50781 74.25 -0.0214844 74.25C0.794921 77.5586 9.51758 77.5156 15.4258 76.0332C20.9902 74.6367 22.709 69.7598 21.6562 65.6562C21.4844 65.0762 21.2266 64.4961 20.8613 63.8945C31.7754 54.8711 39.4883 47.373 44.752 41.7656C46.084 40.4121 47.6738 38.6504 49.4355 36.6738C56.0742 29.3477 65.5273 17.7891 77.1719 0.0214844ZM32.9355 8.42188C37.4688 8.42188 41.1426 12.1172 41.1426 16.6719C41.1426 21.248 37.4688 24.9219 32.9355 24.9219C28.3809 24.9219 24.6855 21.248 24.6855 16.6719C24.6855 12.1172 28.3809 8.42188 32.9355 8.42188ZM72.8965 12.0742C65.0977 24.3633 59.877 31.625 54.377 37.2969C50.8535 40.9277 47.9746 44.5156 45.4395 47.0938C40.8418 51.9922 34.7832 57.7715 28.123 64.1094C28.4668 72.1875 32.5703 79.2129 45.9551 81.8125C67.3965 85.9805 90.1055 71.7793 87.8281 42.9688C86.8398 30.6152 80.0938 19.4219 72.8965 12.0742ZM74.7871 33C77.7949 33 80.2656 35.4707 80.2656 38.5C80.2656 41.5508 77.7949 44 74.7871 44C71.7793 44 69.3086 41.5508 69.3086 38.5C69.3086 35.4707 71.7793 33 74.7871 33ZM71.3496 49.5C74.3574 49.5 76.8281 51.9707 76.8281 55C76.8281 58.0508 74.3574 60.5 71.3496 60.5C68.3418 60.5 65.8711 58.0508 65.8711 55C65.8711 51.9707 68.3418 49.5 71.3496 49.5ZM43.8926 60.5C46.9219 60.5 49.3926 62.9707 49.3926 66C49.3926 69.0293 46.9219 71.5 43.8926 71.5C40.8848 71.5 38.4141 69.0293 38.4141 66C38.4141 62.9707 40.8848 60.5 43.8926 60.5ZM60.3711 60.5C63.3789 60.5 65.8711 62.9707 65.8711 66C65.8711 69.0293 63.3789 71.5 60.3711 71.5C57.3633 71.5 54.8926 69.0293 54.8926 66C54.8926 62.9707 57.3633 60.5 60.3711 60.5Z" fill="#AC2624"/>
</g>
<defs>
<clipPath id="clip0_28_388">
<rect width="88" height="88" fill="white"/>
</clipPath>
</defs>
</svg>
