<svg width="25" height="26" viewBox="0 0 25 26" fill="none" xmlns="http://www.w3.org/2000/svg">
<path d="M22.5 2H19.5V1C19.5 0.734784 19.3946 0.48043 19.2071 0.292893C19.0196 0.105357 18.7652 0 18.5 0C18.2348 0 17.9804 0.105357 17.7929 0.292893C17.6054 0.48043 17.5 0.734784 17.5 1V2H7.5V1C7.5 0.734784 7.39464 0.48043 7.20711 0.292893C7.01957 0.105357 6.76522 0 6.5 0C6.23478 0 5.98043 0.105357 5.79289 0.292893C5.60536 0.48043 5.5 0.734784 5.5 1V2H2.5C1.96957 2 1.46086 2.21071 1.08579 2.58579C0.710714 2.96086 0.5 3.46957 0.5 4V24C0.5 24.5304 0.710714 25.0391 1.08579 25.4142C1.46086 25.7893 1.96957 26 2.5 26H22.5C23.0304 26 23.5391 25.7893 23.9142 25.4142C24.2893 25.0391 24.5 24.5304 24.5 24V4C24.5 3.46957 24.2893 2.96086 23.9142 2.58579C23.5391 2.21071 23.0304 2 22.5 2ZM5.5 4V5C5.5 5.26522 5.60536 5.51957 5.79289 5.70711C5.98043 5.89464 6.23478 6 6.5 6C6.76522 6 7.01957 5.89464 7.20711 5.70711C7.39464 5.51957 7.5 5.26522 7.5 5V4H17.5V5C17.5 5.26522 17.6054 5.51957 17.7929 5.70711C17.9804 5.89464 18.2348 6 18.5 6C18.7652 6 19.0196 5.89464 19.2071 5.70711C19.3946 5.51957 19.5 5.26522 19.5 5V4H22.5V8H2.5V4H5.5ZM22.5 24H2.5V10H22.5V24ZM10.5 13V21C10.5 21.2652 10.3946 21.5196 10.2071 21.7071C10.0196 21.8946 9.76522 22 9.5 22C9.23478 22 8.98043 21.8946 8.79289 21.7071C8.60536 21.5196 8.5 21.2652 8.5 21V14.6175L7.9475 14.895C7.71013 15.0137 7.43534 15.0332 7.18357 14.9493C6.9318 14.8654 6.72368 14.6849 6.605 14.4475C6.48632 14.2101 6.46679 13.9353 6.55071 13.6836C6.63463 13.4318 6.81513 13.2237 7.0525 13.105L9.0525 12.105C9.20501 12.0287 9.37452 11.9926 9.54489 12.0003C9.71526 12.0079 9.88084 12.059 10.0259 12.1487C10.171 12.2384 10.2907 12.3637 10.3736 12.5127C10.4566 12.6617 10.5001 12.8295 10.5 13ZM17.895 16.8062L15.5 20H17.5C17.7652 20 18.0196 20.1054 18.2071 20.2929C18.3946 20.4804 18.5 20.7348 18.5 21C18.5 21.2652 18.3946 21.5196 18.2071 21.7071C18.0196 21.8946 17.7652 22 17.5 22H13.5C13.3143 22 13.1322 21.9483 12.9743 21.8507C12.8163 21.753 12.6886 21.6133 12.6056 21.4472C12.5225 21.2811 12.4874 21.0952 12.504 20.9102C12.5207 20.7252 12.5886 20.5486 12.7 20.4L16.2975 15.6038C16.3793 15.4948 16.438 15.3703 16.47 15.2379C16.502 15.1054 16.5066 14.9678 16.4835 14.8336C16.4604 14.6993 16.4101 14.5712 16.3357 14.457C16.2612 14.3429 16.1643 14.2452 16.0508 14.1699C15.9372 14.0945 15.8095 14.0432 15.6754 14.019C15.5413 13.9949 15.4037 13.9983 15.271 14.0292C15.1383 14.0602 15.0134 14.1179 14.9038 14.1988C14.7942 14.2798 14.7023 14.3823 14.6338 14.5C14.57 14.6174 14.4834 14.7208 14.3791 14.8041C14.2748 14.8875 14.1548 14.9491 14.0263 14.9853C13.8977 15.0215 13.7633 15.0316 13.6308 15.0151C13.4983 14.9985 13.3704 14.9555 13.2548 14.8887C13.1391 14.8219 13.0381 14.7327 12.9575 14.6262C12.8769 14.5197 12.8185 14.3981 12.7857 14.2687C12.7528 14.1392 12.7462 14.0045 12.7663 13.8725C12.7864 13.7405 12.8327 13.6138 12.9025 13.5C13.2328 12.9284 13.7425 12.4817 14.3525 12.2291C14.9625 11.9766 15.6388 11.9323 16.2765 12.1032C16.9142 12.2741 17.4778 12.6506 17.8798 13.1743C18.2818 13.6981 18.4998 14.3398 18.5 15C18.5021 15.6522 18.2895 16.2869 17.895 16.8062Z" fill="#AC2624"/>
</svg>
