<svg width="31" height="28" viewBox="0 0 31 28" fill="none" xmlns="http://www.w3.org/2000/svg">
<path d="M30.5 14C30.5 14.2652 30.3946 14.5196 30.2071 14.7071C30.0196 14.8946 29.7652 15 29.5 15H27.4163C27.1781 16.3973 26.4537 17.6654 25.3711 18.5803C24.2885 19.4952 22.9174 19.998 21.5 20H16.5V23H19.5C20.5609 23 21.5783 23.4214 22.3284 24.1716C23.0786 24.9217 23.5 25.9391 23.5 27C23.5 27.2652 23.3946 27.5196 23.2071 27.7071C23.0196 27.8946 22.7652 28 22.5 28C22.2348 28 21.9804 27.8946 21.7929 27.7071C21.6054 27.5196 21.5 27.2652 21.5 27C21.5 26.4696 21.2893 25.9609 20.9142 25.5858C20.5391 25.2107 20.0304 25 19.5 25H16.5V27C16.5 27.2652 16.3946 27.5196 16.2071 27.7071C16.0196 27.8946 15.7652 28 15.5 28C15.2348 28 14.9804 27.8946 14.7929 27.7071C14.6054 27.5196 14.5 27.2652 14.5 27V25H11.5C10.9696 25 10.4609 25.2107 10.0858 25.5858C9.71071 25.9609 9.5 26.4696 9.5 27C9.5 27.2652 9.39464 27.5196 9.20711 27.7071C9.01957 27.8946 8.76522 28 8.5 28C8.23478 28 7.98043 27.8946 7.79289 27.7071C7.60536 27.5196 7.5 27.2652 7.5 27C7.5 25.9391 7.92143 24.9217 8.67157 24.1716C9.42172 23.4214 10.4391 23 11.5 23H14.5V20H9.5C8.08259 19.998 6.71148 19.4952 5.6289 18.5803C4.54632 17.6654 3.82195 16.3973 3.58375 15H1.5C1.23478 15 0.98043 14.8946 0.792893 14.7071C0.605357 14.5196 0.5 14.2652 0.5 14C0.5 13.7348 0.605357 13.4804 0.792893 13.2929C0.98043 13.1054 1.23478 13 1.5 13H4.5C4.76522 13 5.01957 13.1054 5.20711 13.2929C5.39464 13.4804 5.5 13.7348 5.5 14C5.5 15.0609 5.92143 16.0783 6.67157 16.8284C7.42172 17.5786 8.43913 18 9.5 18H21.5C22.5609 18 23.5783 17.5786 24.3284 16.8284C25.0786 16.0783 25.5 15.0609 25.5 14C25.5 13.7348 25.6054 13.4804 25.7929 13.2929C25.9804 13.1054 26.2348 13 26.5 13H29.5C29.7652 13 30.0196 13.1054 30.2071 13.2929C30.3946 13.4804 30.5 13.7348 30.5 14ZM7.98875 15.31C7.80115 15.0936 7.66222 14.8394 7.58135 14.5647C7.50047 14.2899 7.47956 14.001 7.52 13.7175L9.235 1.7175C9.30498 1.24169 9.54324 0.806747 9.90654 0.491616C10.2698 0.176485 10.7341 0.00205917 11.215 0H19.785C20.2659 0.00205917 20.7302 0.176485 21.0935 0.491616C21.4568 0.806747 21.695 1.24169 21.765 1.7175L23.48 13.7175C23.5205 14.0011 23.4995 14.2902 23.4186 14.565C23.3376 14.8399 23.1986 15.0941 23.0108 15.3106C22.8231 15.527 22.591 15.7006 22.3304 15.8195C22.0697 15.9385 21.7865 16 21.5 16H9.5C9.21337 16 8.93008 15.9384 8.66934 15.8193C8.4086 15.7003 8.1765 15.5266 7.98875 15.31ZM9.5 14H21.5L19.785 2H11.2137L9.5 14Z" fill="#AC2624"/>
</svg>
