<svg width="29" height="24" viewBox="0 0 29 24" fill="none" xmlns="http://www.w3.org/2000/svg">
<path d="M26.5 0H18.5C17.7238 0 16.9582 0.180725 16.2639 0.527864C15.5697 0.875003 14.9657 1.37902 14.5 2C14.0343 1.37902 13.4303 0.875003 12.7361 0.527864C12.0418 0.180725 11.2762 0 10.5 0H2.5C1.96957 0 1.46086 0.210714 1.08579 0.585786C0.710714 0.960859 0.5 1.46957 0.5 2V18C0.5 18.5304 0.710714 19.0391 1.08579 19.4142C1.46086 19.7893 1.96957 20 2.5 20H10.5C11.2956 20 12.0587 20.3161 12.6213 20.8787C13.1839 21.4413 13.5 22.2044 13.5 23C13.5 23.2652 13.6054 23.5196 13.7929 23.7071C13.9804 23.8946 14.2348 24 14.5 24C14.7652 24 15.0196 23.8946 15.2071 23.7071C15.3946 23.5196 15.5 23.2652 15.5 23C15.5 22.2044 15.8161 21.4413 16.3787 20.8787C16.9413 20.3161 17.7044 20 18.5 20H26.5C27.0304 20 27.5391 19.7893 27.9142 19.4142C28.2893 19.0391 28.5 18.5304 28.5 18V2C28.5 1.46957 28.2893 0.960859 27.9142 0.585786C27.5391 0.210714 27.0304 0 26.5 0ZM10.5 18H2.5V2H10.5C11.2956 2 12.0587 2.31607 12.6213 2.87868C13.1839 3.44129 13.5 4.20435 13.5 5V19C12.6353 18.3493 11.5821 17.9983 10.5 18ZM26.5 18H18.5C17.4179 17.9983 16.3647 18.3493 15.5 19V5C15.5 4.20435 15.8161 3.44129 16.3787 2.87868C16.9413 2.31607 17.7044 2 18.5 2H26.5V18ZM18.5 5H23.5C23.7652 5 24.0196 5.10536 24.2071 5.29289C24.3946 5.48043 24.5 5.73478 24.5 6C24.5 6.26522 24.3946 6.51957 24.2071 6.70711C24.0196 6.89464 23.7652 7 23.5 7H18.5C18.2348 7 17.9804 6.89464 17.7929 6.70711C17.6054 6.51957 17.5 6.26522 17.5 6C17.5 5.73478 17.6054 5.48043 17.7929 5.29289C17.9804 5.10536 18.2348 5 18.5 5ZM24.5 10C24.5 10.2652 24.3946 10.5196 24.2071 10.7071C24.0196 10.8946 23.7652 11 23.5 11H18.5C18.2348 11 17.9804 10.8946 17.7929 10.7071C17.6054 10.5196 17.5 10.2652 17.5 10C17.5 9.73478 17.6054 9.48043 17.7929 9.29289C17.9804 9.10536 18.2348 9 18.5 9H23.5C23.7652 9 24.0196 9.10536 24.2071 9.29289C24.3946 9.48043 24.5 9.73478 24.5 10ZM24.5 14C24.5 14.2652 24.3946 14.5196 24.2071 14.7071C24.0196 14.8946 23.7652 15 23.5 15H18.5C18.2348 15 17.9804 14.8946 17.7929 14.7071C17.6054 14.5196 17.5 14.2652 17.5 14C17.5 13.7348 17.6054 13.4804 17.7929 13.2929C17.9804 13.1054 18.2348 13 18.5 13H23.5C23.7652 13 24.0196 13.1054 24.2071 13.2929C24.3946 13.4804 24.5 13.7348 24.5 14Z" fill="#AC2624"/>
</svg>
