<svg width="60" height="61" viewBox="0 0 60 61" fill="none" xmlns="http://www.w3.org/2000/svg">
<path d="M30 0.84375C24.1346 0.84375 18.4008 2.58306 13.5239 5.84173C8.64694 9.1004 4.84582 13.7321 2.60121 19.151C0.3566 24.57 -0.230693 30.5329 0.9136 36.2856C2.05789 42.0384 4.88238 47.3226 9.02988 51.4701C13.1774 55.6176 18.4616 58.4421 24.2144 59.5864C29.9671 60.7307 35.93 60.1434 41.349 57.8988C46.7679 55.6542 51.3996 51.8531 54.6583 46.9761C57.917 42.0992 59.6563 36.3655 59.6563 30.5C59.648 22.6372 56.5208 15.0989 50.961 9.53903C45.4011 3.97921 37.8628 0.852053 30 0.84375ZM32.2813 55.4882V37.3438H39.125C39.73 37.3438 40.3103 37.1034 40.7381 36.6756C41.1659 36.2478 41.4063 35.6675 41.4063 35.0625C41.4063 34.4575 41.1659 33.8772 40.7381 33.4494C40.3103 33.0216 39.73 32.7812 39.125 32.7812H32.2813V25.9375C32.2813 24.7274 32.762 23.567 33.6176 22.7113C34.4732 21.8557 35.6337 21.375 36.8438 21.375H41.4063C42.0113 21.375 42.5915 21.1347 43.0194 20.7068C43.4472 20.279 43.6875 19.6988 43.6875 19.0938C43.6875 18.4887 43.4472 17.9085 43.0194 17.4807C42.5915 17.0528 42.0113 16.8125 41.4063 16.8125H36.8438C34.4237 16.8125 32.1027 17.7739 30.3914 19.4851C28.6801 21.1964 27.7188 23.5174 27.7188 25.9375V32.7812H20.875C20.27 32.7812 19.6897 33.0216 19.2619 33.4494C18.8341 33.8772 18.5938 34.4575 18.5938 35.0625C18.5938 35.6675 18.8341 36.2478 19.2619 36.6756C19.6897 37.1034 20.27 37.3438 20.875 37.3438H27.7188V55.4882C21.2879 54.9012 15.3309 51.8576 11.0868 46.9905C6.8428 42.1234 4.63842 35.8075 4.93225 29.3566C5.22609 22.9057 7.9955 16.8164 12.6644 12.3552C17.3334 7.89412 23.5424 5.40465 30 5.40465C36.4576 5.40465 42.6666 7.89412 47.3356 12.3552C52.0045 16.8164 54.7739 22.9057 55.0678 29.3566C55.3616 35.8075 53.1572 42.1234 48.9132 46.9905C44.6691 51.8576 38.7121 54.9012 32.2813 55.4882Z" fill="#AC2624"/>
</svg>
