<svg width="60" height="61" viewBox="0 0 60 61" fill="none" xmlns="http://www.w3.org/2000/svg">
<path d="M30 16.8125C27.2929 16.8125 24.6465 17.6153 22.3956 19.1193C20.1447 20.6233 18.3904 22.761 17.3544 25.262C16.3184 27.7631 16.0474 30.5152 16.5755 33.1703C17.1036 35.8254 18.4072 38.2643 20.3215 40.1785C22.2357 42.0928 24.6746 43.3964 27.3297 43.9245C29.9848 44.4526 32.7369 44.1816 35.238 43.1456C37.739 42.1096 39.8767 40.3553 41.3807 38.1044C42.8847 35.8535 43.6875 33.2071 43.6875 30.5C43.6837 26.871 42.2404 23.3917 39.6744 20.8256C37.1083 18.2596 33.629 16.8163 30 16.8125ZM30 39.625C28.1952 39.625 26.431 39.0898 24.9304 38.0872C23.4298 37.0845 22.2602 35.6594 21.5696 33.992C20.8789 32.3246 20.6982 30.4899 21.0503 28.7198C21.4024 26.9497 22.2715 25.3238 23.5477 24.0477C24.8238 22.7715 26.4497 21.9024 28.2198 21.5503C29.9899 21.1982 31.8246 21.3789 33.492 22.0696C35.1594 22.7602 36.5845 23.9298 37.5872 25.4304C38.5898 26.931 39.125 28.6952 39.125 30.5C39.125 32.9201 38.1636 35.2411 36.4523 36.9523C34.7411 38.6636 32.4201 39.625 30 39.625ZM43.6875 0.84375H16.3125C12.0787 0.848279 8.01963 2.53215 5.02589 5.52589C2.03215 8.51963 0.348279 12.5787 0.34375 16.8125V44.1875C0.348279 48.4213 2.03215 52.4804 5.02589 55.4741C8.01963 58.4679 12.0787 60.1517 16.3125 60.1562H43.6875C47.9213 60.1517 51.9804 58.4679 54.9741 55.4741C57.9679 52.4804 59.6517 48.4213 59.6562 44.1875V16.8125C59.6517 12.5787 57.9679 8.51963 54.9741 5.52589C51.9804 2.53215 47.9213 0.848279 43.6875 0.84375ZM55.0938 44.1875C55.0938 47.2126 53.892 50.1138 51.7529 52.2529C49.6138 54.392 46.7126 55.5938 43.6875 55.5938H16.3125C13.2874 55.5938 10.3862 54.392 8.24706 52.2529C6.10798 50.1138 4.90625 47.2126 4.90625 44.1875V16.8125C4.90625 13.7874 6.10798 10.8862 8.24706 8.74706C10.3862 6.60798 13.2874 5.40625 16.3125 5.40625H43.6875C46.7126 5.40625 49.6138 6.60798 51.7529 8.74706C53.892 10.8862 55.0938 13.7874 55.0938 16.8125V44.1875ZM48.25 15.6719C48.25 16.3487 48.0493 17.0102 47.6733 17.573C47.2973 18.1357 46.7629 18.5743 46.1376 18.8333C45.5124 19.0923 44.8243 19.16 44.1606 19.028C43.4968 18.896 42.8871 18.5701 42.4085 18.0915C41.9299 17.6129 41.604 17.0032 41.472 16.3395C41.34 15.6757 41.4077 14.9876 41.6667 14.3624C41.9257 13.7371 42.3643 13.2027 42.927 12.8267C43.4898 12.4507 44.1513 12.25 44.8281 12.25C45.7357 12.25 46.606 12.6105 47.2478 13.2522C47.8895 13.894 48.25 14.7643 48.25 15.6719Z" fill="#AC2624"/>
</svg>
