<svg width="55" height="54" viewBox="0 0 55 54" fill="none" xmlns="http://www.w3.org/2000/svg">
<circle cx="27.5" cy="27" r="27" fill="#BB346C"/>
<path fill-rule="evenodd" clip-rule="evenodd" d="M20.9036 11.096C22.6098 11.0175 23.1538 11 27.5 11C31.8462 11 32.3902 11.0189 34.0949 11.096C35.7996 11.1731 36.9633 11.4451 37.9815 11.8393C39.0476 12.2422 40.0149 12.872 40.8149 13.6865C41.6295 14.4851 42.2578 15.4509 42.6593 16.5185C43.0549 17.5367 43.3255 18.7004 43.404 20.4022C43.4825 22.1113 43.5 22.6553 43.5 27C43.5 31.3462 43.4811 31.8902 43.404 33.5964C43.3269 35.2982 43.0549 36.4618 42.6593 37.48C42.2578 38.5478 41.6284 39.5152 40.8149 40.3149C40.0149 41.1295 39.0476 41.7578 37.9815 42.1593C36.9633 42.5549 35.7996 42.8255 34.0978 42.904C32.3902 42.9825 31.8462 43 27.5 43C23.1538 43 22.6098 42.9811 20.9036 42.904C19.2018 42.8269 18.0382 42.5549 17.02 42.1593C15.9522 41.7578 14.9848 41.1284 14.1851 40.3149C13.3711 39.5159 12.7412 38.5489 12.3393 37.4815C11.9451 36.4633 11.6745 35.2996 11.596 33.5978C11.5175 31.8887 11.5 31.3447 11.5 27C11.5 22.6538 11.5189 22.1098 11.596 20.4051C11.6731 18.7004 11.9451 17.5367 12.3393 16.5185C12.7418 15.451 13.3722 14.4841 14.1865 13.6851C14.9851 12.8713 15.9516 12.2414 17.0185 11.8393C18.0367 11.4451 19.2004 11.1745 20.9022 11.096H20.9036ZM33.9655 13.976C32.2782 13.8989 31.772 13.8829 27.5 13.8829C23.228 13.8829 22.7218 13.8989 21.0345 13.976C19.4738 14.0473 18.6273 14.3076 18.0629 14.5273C17.3167 14.8182 16.7829 15.1629 16.2229 15.7229C15.6921 16.2393 15.2835 16.868 15.0273 17.5629C14.8076 18.1273 14.5473 18.9738 14.476 20.5345C14.3989 22.2218 14.3829 22.728 14.3829 27C14.3829 31.272 14.3989 31.7782 14.476 33.4655C14.5473 35.0262 14.8076 35.8727 15.0273 36.4371C15.2833 37.1309 15.692 37.7607 16.2229 38.2771C16.7393 38.808 17.3691 39.2167 18.0629 39.4727C18.6273 39.6924 19.4738 39.9527 21.0345 40.024C22.7218 40.1011 23.2265 40.1171 27.5 40.1171C31.7735 40.1171 32.2782 40.1011 33.9655 40.024C35.5262 39.9527 36.3727 39.6924 36.9371 39.4727C37.6833 39.1818 38.2171 38.8371 38.7771 38.2771C39.308 37.7607 39.7167 37.1309 39.9727 36.4371C40.1924 35.8727 40.4527 35.0262 40.524 33.4655C40.6011 31.7782 40.6171 31.272 40.6171 27C40.6171 22.728 40.6011 22.2218 40.524 20.5345C40.4527 18.9738 40.1924 18.1273 39.9727 17.5629C39.6818 16.8167 39.3371 16.2829 38.7771 15.7229C38.2606 15.1921 37.6319 14.7836 36.9371 14.5273C36.3727 14.3076 35.5262 14.0473 33.9655 13.976ZM25.4564 31.9324C26.5977 32.4075 27.8686 32.4716 29.0519 32.1138C30.2352 31.756 31.2577 30.9984 31.9445 29.9705C32.6314 28.9426 32.9401 27.7082 32.8179 26.478C32.6957 25.2478 32.1502 24.0981 31.2745 23.2255C30.7163 22.6676 30.0414 22.2405 29.2983 21.9748C28.5552 21.7091 27.7624 21.6114 26.9771 21.6889C26.1917 21.7664 25.4333 22.017 24.7564 22.4227C24.0796 22.8285 23.5011 23.3793 23.0626 24.0354C22.6242 24.6916 22.3366 25.4368 22.2208 26.2174C22.1049 26.998 22.1635 27.7946 22.3924 28.5498C22.6214 29.3051 23.0149 30.0002 23.5447 30.5851C24.0745 31.1699 24.7274 31.6301 25.4564 31.9324ZM21.6847 21.1847C22.4484 20.4211 23.355 19.8153 24.3528 19.402C25.3506 18.9887 26.42 18.776 27.5 18.776C28.58 18.776 29.6494 18.9887 30.6472 19.402C31.645 19.8153 32.5516 20.4211 33.3153 21.1847C34.0789 21.9484 34.6847 22.855 35.098 23.8528C35.5113 24.8506 35.724 25.92 35.724 27C35.724 28.08 35.5113 29.1494 35.098 30.1472C34.6847 31.145 34.0789 32.0516 33.3153 32.8153C31.773 34.3576 29.6812 35.224 27.5 35.224C25.3188 35.224 23.227 34.3576 21.6847 32.8153C20.1424 31.273 19.276 29.1812 19.276 27C19.276 24.8188 20.1424 22.727 21.6847 21.1847ZM37.548 20.0007C37.7372 19.8222 37.8887 19.6075 37.9935 19.3694C38.0983 19.1313 38.1543 18.8746 38.1581 18.6144C38.1619 18.3543 38.1134 18.0961 38.0156 17.855C37.9178 17.6139 37.7726 17.3949 37.5887 17.211C37.4047 17.027 37.1857 16.8818 36.9446 16.784C36.7036 16.6862 36.4453 16.6378 36.1852 16.6416C35.9251 16.6454 35.6683 16.7013 35.4302 16.8061C35.1921 16.9109 34.9774 17.0624 34.7989 17.2516C34.4517 17.6197 34.2616 18.1085 34.269 18.6144C34.2764 19.1203 34.4806 19.6035 34.8384 19.9612C35.1962 20.319 35.6793 20.5232 36.1852 20.5306C36.6911 20.538 37.18 20.3479 37.548 20.0007Z" fill="white"/>
</svg>
