<svg width="27" height="24" viewBox="0 0 27 24" fill="none" xmlns="http://www.w3.org/2000/svg">
<path d="M24.833 4H19.833V3C19.833 2.20435 19.5169 1.44129 18.9543 0.87868C18.3917 0.316071 17.6287 0 16.833 0H10.833C10.0374 0 9.2743 0.316071 8.71169 0.87868C8.14908 1.44129 7.83301 2.20435 7.83301 3V4H2.83301C2.30257 4 1.79387 4.21071 1.41879 4.58579C1.04372 4.96086 0.833008 5.46957 0.833008 6V22C0.833008 22.5304 1.04372 23.0391 1.41879 23.4142C1.79387 23.7893 2.30257 24 2.83301 24H24.833C25.3634 24 25.8721 23.7893 26.2472 23.4142C26.6223 23.0391 26.833 22.5304 26.833 22V6C26.833 5.46957 26.6223 4.96086 26.2472 4.58579C25.8721 4.21071 25.3634 4 24.833 4ZM9.83301 3C9.83301 2.73478 9.93836 2.48043 10.1259 2.29289C10.3134 2.10536 10.5678 2 10.833 2H16.833C17.0982 2 17.3526 2.10536 17.5401 2.29289C17.7277 2.48043 17.833 2.73478 17.833 3V4H9.83301V3ZM24.833 6V11.2013C21.4577 13.0385 17.6759 14.0007 13.833 14C9.99026 14.0007 6.20854 13.0389 2.83301 11.2025V6H24.833ZM24.833 22H2.83301V13.455C6.25791 15.1302 10.0203 16.0007 13.833 16C17.6457 16.0001 21.4081 15.1292 24.833 13.4538V22ZM10.833 11C10.833 10.7348 10.9384 10.4804 11.1259 10.2929C11.3134 10.1054 11.5678 10 11.833 10H15.833C16.0982 10 16.3526 10.1054 16.5401 10.2929C16.7277 10.4804 16.833 10.7348 16.833 11C16.833 11.2652 16.7277 11.5196 16.5401 11.7071C16.3526 11.8946 16.0982 12 15.833 12H11.833C11.5678 12 11.3134 11.8946 11.1259 11.7071C10.9384 11.5196 10.833 11.2652 10.833 11Z" fill="#AC2624"/>
</svg>
