<svg width="60" height="61" viewBox="0 0 60 61" fill="none" xmlns="http://www.w3.org/2000/svg">
<path d="M55.0938 0.84375H4.90625C3.6962 0.84375 2.53571 1.32444 1.68008 2.18008C0.82444 3.03571 0.34375 4.1962 0.34375 5.40625V55.5938C0.34375 56.8038 0.82444 57.9643 1.68008 58.8199C2.53571 59.6756 3.6962 60.1562 4.90625 60.1562H55.0938C56.3038 60.1562 57.4643 59.6756 58.3199 58.8199C59.1756 57.9643 59.6562 56.8038 59.6562 55.5938V5.40625C59.6562 4.1962 59.1756 3.03571 58.3199 2.18008C57.4643 1.32444 56.3038 0.84375 55.0938 0.84375ZM55.0938 55.5938H4.90625V5.40625H55.0938V55.5938ZM20.875 25.9375V44.1875C20.875 44.7925 20.6347 45.3728 20.2068 45.8006C19.779 46.2284 19.1988 46.4688 18.5938 46.4688C17.9887 46.4688 17.4085 46.2284 16.9807 45.8006C16.5528 45.3728 16.3125 44.7925 16.3125 44.1875V25.9375C16.3125 25.3325 16.5528 24.7522 16.9807 24.3244C17.4085 23.8966 17.9887 23.6562 18.5938 23.6562C19.1988 23.6562 19.779 23.8966 20.2068 24.3244C20.6347 24.7522 20.875 25.3325 20.875 25.9375ZM45.9688 33.9219V44.1875C45.9688 44.7925 45.7284 45.3728 45.3006 45.8006C44.8728 46.2284 44.2925 46.4688 43.6875 46.4688C43.0825 46.4688 42.5022 46.2284 42.0744 45.8006C41.6466 45.3728 41.4062 44.7925 41.4062 44.1875V33.9219C41.4062 32.4093 40.8054 30.9587 39.7358 29.8892C38.6663 28.8196 37.2157 28.2188 35.7031 28.2188C34.1906 28.2188 32.7399 28.8196 31.6704 29.8892C30.6009 30.9587 30 32.4093 30 33.9219V44.1875C30 44.7925 29.7597 45.3728 29.3318 45.8006C28.904 46.2284 28.3238 46.4688 27.7188 46.4688C27.1137 46.4688 26.5335 46.2284 26.1057 45.8006C25.6778 45.3728 25.4375 44.7925 25.4375 44.1875V25.9375C25.4403 25.3787 25.6482 24.8404 26.0215 24.4247C26.3949 24.009 26.9079 23.7448 27.4632 23.6822C28.0184 23.6196 28.5774 23.7629 29.0339 24.0851C29.4905 24.4073 29.813 24.8858 29.9401 25.4299C31.4833 24.383 33.2826 23.7763 35.1446 23.6748C37.0067 23.5734 38.8612 23.9811 40.509 24.8541C42.1569 25.7271 43.5358 27.0325 44.4977 28.6301C45.4596 30.2276 45.9681 32.0571 45.9688 33.9219ZM22.0156 17.9531C22.0156 18.6299 21.8149 19.2915 21.4389 19.8542C21.0629 20.4169 20.5285 20.8555 19.9032 21.1145C19.278 21.3735 18.59 21.4413 17.9262 21.3092C17.2624 21.1772 16.6527 20.8513 16.1741 20.3728C15.6956 19.8942 15.3697 19.2845 15.2376 18.6207C15.1056 17.9569 15.1734 17.2689 15.4323 16.6436C15.6913 16.0184 16.1299 15.4839 16.6927 15.1079C17.2554 14.7319 17.917 14.5312 18.5938 14.5312C19.5013 14.5312 20.3717 14.8918 21.0134 15.5335C21.6551 16.1752 22.0156 17.0456 22.0156 17.9531Z" fill="#AC2624"/>
</svg>
