<svg width="55" height="54" viewBox="0 0 55 54" fill="none" xmlns="http://www.w3.org/2000/svg">
<circle cx="27.5" cy="27" r="27" fill="#007AB9"/>
<path d="M16.8919 19.7838C18.7652 19.7838 20.2838 18.2652 20.2838 16.3919C20.2838 14.5186 18.7652 13 16.8919 13C15.0186 13 13.5 14.5186 13.5 16.3919C13.5 18.2652 15.0186 19.7838 16.8919 19.7838Z" fill="white"/>
<path d="M23.4869 22.3541V41.1724H29.3297V31.8664C29.3297 29.4108 29.7917 27.0327 32.8364 27.0327C35.8392 27.0327 35.8764 29.8402 35.8764 32.0214V41.174H41.7223V30.8541C41.7223 25.7848 40.6309 21.889 34.7059 21.889C31.8613 21.889 29.9545 23.4501 29.1747 24.9275H29.0956V22.3541H23.4869ZM13.9653 22.3541H19.8175V41.1724H13.9653V22.3541Z" fill="white"/>
</svg>
