<svg width="16" height="22" viewBox="0 0 16 22" fill="none" xmlns="http://www.w3.org/2000/svg">
<g clip-path="url(#clip0_28_1208)">
<path d="M13.5417 2.61287C11.2824 0.607257 7.88632 0.0181969 4.94494 1.11217C1.9325 2.24821 0 4.84288 0 7.71806C0 8.78397 0.255773 9.79379 0.667851 10.7756C2.28774 14.5484 4.8881 17.8162 7.43162 21.1122C7.77265 21.561 8.24156 21.5329 8.5968 21.0701C9.50622 19.892 10.4014 18.7138 11.2682 17.5077C12.8313 15.3758 14.3091 13.2019 15.3037 10.8036C16.5542 7.76013 16.1847 4.98313 13.5417 2.61287ZM13.627 11.028C12.1918 14.0715 10.0888 16.7643 7.98579 19.5554C5.59858 16.3155 3.04085 13.23 1.76199 9.54134C0.582593 6.09113 2.75666 2.75312 6.6643 2.00978C11.0693 1.16827 14.7353 4.38005 14.5364 7.97051C14.4654 9.03643 14.0817 10.0462 13.627 11.028Z" fill="#AC2624"/>
<path d="M6.66423 2.00973C2.75659 2.75307 0.582523 6.09108 1.76192 9.54129C3.04078 13.2299 5.59851 16.3155 7.98572 19.5553C10.0887 16.7643 12.1918 14.0714 13.6269 11.028C14.0816 10.0462 14.4653 9.03638 14.5363 7.97046C14.7353 4.38 11.0692 1.16822 6.66423 2.00973ZM7.99993 11.2944C5.81165 11.2944 4.20597 9.40104 4.34807 7.6619C4.20597 5.83862 5.8827 4.04339 7.92888 4.01534C9.97506 4.00132 11.6944 5.67032 11.6802 7.64788C11.666 9.63947 10.0035 11.2944 7.99993 11.2944Z" fill="#F2F2F2"/>
<path d="M7.92892 4.01535C5.88274 4.0434 4.206 5.83863 4.3481 7.66191C4.206 9.40104 5.81169 11.2944 7.99996 11.2944C10.0035 11.2944 11.666 9.63947 11.6802 7.64789C11.6802 5.67033 9.9751 4.00132 7.92892 4.01535ZM7.98575 9.86387C6.76373 9.86387 5.76906 8.86808 5.76906 7.66191C5.76906 6.45574 6.74952 5.47397 7.98575 5.45995C9.22199 5.45995 10.2167 6.44171 10.2167 7.66191C10.2167 8.88211 9.20778 9.86387 7.98575 9.86387Z" fill="#AC2624"/>
</g>
<defs>
<clipPath id="clip0_28_1208">
<rect width="16" height="20.8696" fill="white" transform="translate(0 0.565186)"/>
</clipPath>
</defs>
</svg>
