<svg width="23" height="28" viewBox="0 0 23 28" fill="none" xmlns="http://www.w3.org/2000/svg">
<path d="M11.5 6C10.5111 6 9.54439 6.29325 8.72215 6.84265C7.8999 7.39206 7.25904 8.17295 6.8806 9.08658C6.50216 10.0002 6.40315 11.0055 6.59607 11.9755C6.789 12.9454 7.2652 13.8363 7.96447 14.5355C8.66373 15.2348 9.55464 15.711 10.5245 15.9039C11.4945 16.0969 12.4998 15.9978 13.4134 15.6194C14.327 15.241 15.1079 14.6001 15.6573 13.7779C16.2068 12.9556 16.5 11.9889 16.5 11C16.5 9.67392 15.9732 8.40215 15.0355 7.46447C14.0979 6.52678 12.8261 6 11.5 6ZM11.5 14C10.9067 14 10.3266 13.8241 9.83329 13.4944C9.33994 13.1648 8.95542 12.6962 8.72836 12.1481C8.5013 11.5999 8.44189 10.9967 8.55764 10.4147C8.6734 9.83279 8.95912 9.29824 9.37868 8.87868C9.79824 8.45912 10.3328 8.1734 10.9147 8.05764C11.4967 7.94189 12.0999 8.0013 12.6481 8.22836C13.1962 8.45542 13.6648 8.83994 13.9944 9.33329C14.3241 9.82664 14.5 10.4067 14.5 11C14.5 11.7956 14.1839 12.5587 13.6213 13.1213C13.0587 13.6839 12.2956 14 11.5 14ZM11.5 0C8.58363 0.00330842 5.78766 1.1633 3.72548 3.22548C1.6633 5.28766 0.503308 8.08363 0.5 11C0.5 14.925 2.31375 19.085 5.75 23.0312C7.29403 24.8145 9.03182 26.4202 10.9312 27.8188C11.0994 27.9365 11.2997 27.9997 11.505 27.9997C11.7103 27.9997 11.9106 27.9365 12.0788 27.8188C13.9747 26.4196 15.7091 24.8139 17.25 23.0312C20.6812 19.085 22.5 14.925 22.5 11C22.4967 8.08363 21.3367 5.28766 19.2745 3.22548C17.2123 1.1633 14.4164 0.00330842 11.5 0ZM11.5 25.75C9.43375 24.125 2.5 18.1562 2.5 11C2.5 8.61305 3.44821 6.32387 5.13604 4.63604C6.82387 2.94821 9.11305 2 11.5 2C13.8869 2 16.1761 2.94821 17.864 4.63604C19.5518 6.32387 20.5 8.61305 20.5 11C20.5 18.1537 13.5662 24.125 11.5 25.75Z" fill="#AC2624"/>
</svg>
