<svg width="25" height="25" viewBox="0 0 25 25" fill="none" xmlns="http://www.w3.org/2000/svg">
<path d="M12.634 15.3936C15.9477 15.3936 18.634 12.7074 18.634 9.39365C18.634 6.07994 15.9477 3.39365 12.634 3.39365C9.32026 3.39365 6.63397 6.07994 6.63397 9.39365C6.63397 12.7074 9.32026 15.3936 12.634 15.3936Z" fill="white" stroke="white" stroke-width="2" stroke-miterlimit="10"/>
<path d="M3.54022 20.6437C4.46172 19.0472 5.78725 17.7215 7.38355 16.7998C8.97986 15.8781 10.7907 15.3928 12.634 15.3928C14.4773 15.3928 16.2881 15.8781 17.8844 16.7998C19.4807 17.7215 20.8062 19.0472 21.7277 20.6437" fill="white"/>
<path d="M3.54022 20.6437C4.46172 19.0472 5.78725 17.7215 7.38355 16.7998C8.97985 15.8781 10.7907 15.3928 12.634 15.3928C14.4773 15.3928 16.2881 15.8781 17.8844 16.7998C19.4807 17.7215 20.8062 19.0472 21.7277 20.6437" stroke="white" stroke-width="2" stroke-linecap="round" stroke-linejoin="round"/>
</svg>
