<svg width="56" height="64" viewBox="0 0 56 64" fill="none" xmlns="http://www.w3.org/2000/svg">
<path d="M51.3226 6.62863L14.1809 0.0700401C12.9894 -0.139633 11.7635 0.132502 10.7726 0.826603C9.78169 1.5207 9.10704 2.57993 8.897 3.77137L0.4136 51.9627C0.30984 52.5531 0.323433 53.1582 0.453602 53.7433C0.583771 54.3284 0.827965 54.8821 1.17223 55.3729C1.51649 55.8636 1.95408 56.2816 2.45998 56.6031C2.96588 56.9247 3.53018 57.1433 4.12063 57.2467L41.2622 63.8053C41.8528 63.9095 42.4582 63.8962 43.0436 63.7662C43.6291 63.6362 44.1831 63.3921 44.6742 63.0478C45.1652 62.7035 45.5835 62.2658 45.9052 61.7597C46.2269 61.2536 46.4457 60.689 46.549 60.0983L55.0324 11.9069C55.2403 10.715 54.9662 9.48936 54.2705 8.49954C53.5748 7.50971 52.5144 6.83674 51.3226 6.62863ZM42.0493 59.3112L4.90481 52.7526L13.3882 4.56125L50.5298 11.1198L42.0493 59.3112ZM16.6932 12.0951C16.7988 11.4996 17.1367 10.9704 17.6323 10.6239C18.128 10.2774 18.741 10.1419 19.3366 10.2473L43.0046 14.4248C43.567 14.5233 44.0721 14.8293 44.42 15.2821C44.7679 15.735 44.9333 16.3019 44.8835 16.8707C44.8337 17.4396 44.5723 17.9692 44.1511 18.3547C43.7298 18.7402 43.1792 18.9538 42.6082 18.9531C42.4744 18.9529 42.3408 18.9414 42.209 18.9189L18.541 14.7385C17.9455 14.6328 17.4163 14.295 17.0698 13.7993C16.7233 13.3036 16.5879 12.6906 16.6932 12.0951ZM15.1134 21.0832C15.1654 20.7881 15.275 20.5061 15.436 20.2534C15.597 20.0006 15.8062 19.7821 16.0517 19.6102C16.2972 19.4384 16.5741 19.3166 16.8667 19.2518C17.1593 19.1869 17.4617 19.1804 17.7568 19.2325L41.4248 23.4129C41.9912 23.5077 42.5011 23.8126 42.8526 24.2668C43.2041 24.721 43.3713 25.291 43.3209 25.8631C43.2705 26.4352 43.0062 26.9673 42.5807 27.353C42.1552 27.7388 41.5999 27.9498 41.0256 27.944C40.8907 27.9443 40.7561 27.9319 40.6235 27.907L16.9555 23.7294C16.3605 23.6225 15.8323 23.2837 15.4869 22.7875C15.1415 22.2913 15.0071 21.6783 15.1134 21.0832ZM13.5308 30.0685C13.6384 29.4745 13.9771 28.9475 14.4725 28.6028C14.968 28.258 15.5799 28.1237 16.1742 28.2292L28.0025 30.308C28.5647 30.4065 29.0696 30.7122 29.4175 31.1648C29.7654 31.6173 29.9309 32.1839 29.8815 32.7525C29.8321 33.3212 29.5713 33.8507 29.1506 34.2364C28.7298 34.6222 28.1798 34.8362 27.609 34.8363C27.4752 34.8362 27.3416 34.8248 27.2097 34.8021L15.3758 32.7119C14.7808 32.6055 14.2523 32.2674 13.9064 31.7718C13.5605 31.2762 13.4254 30.6636 13.5308 30.0685Z" fill="#AC2624"/>
</svg>
