<svg width="52" height="60" viewBox="0 0 52 60" fill="none" xmlns="http://www.w3.org/2000/svg">
<path d="M50.4265 16.636L34.4577 0.667266C34.2457 0.455488 33.9941 0.287556 33.7171 0.173065C33.4402 0.0585729 33.1434 -0.000234936 32.8438 7.05359e-07H5.46875C4.2587 7.05359e-07 3.09821 0.480691 2.24258 1.33633C1.38694 2.19196 0.90625 3.35245 0.90625 4.5625V54.75C0.90625 55.96 1.38694 57.1205 2.24258 57.9762C3.09821 58.8318 4.2587 59.3125 5.46875 59.3125H46.5312C47.7413 59.3125 48.9018 58.8318 49.7574 57.9762C50.6131 57.1205 51.0938 55.96 51.0938 54.75V18.25C51.094 17.9503 51.0352 17.6536 50.9207 17.3766C50.8062 17.0997 50.6383 16.848 50.4265 16.636ZM35.125 7.78762L43.3061 15.9688H35.125V7.78762ZM46.5312 54.75H5.46875V4.5625H30.5625V18.25C30.5625 18.855 30.8028 19.4353 31.2307 19.8631C31.6585 20.2909 32.2387 20.5312 32.8438 20.5312H46.5312V54.75ZM37.4062 31.9375C37.4062 32.5425 37.1659 33.1228 36.7381 33.5506C36.3103 33.9784 35.73 34.2188 35.125 34.2188H16.875C16.27 34.2188 15.6897 33.9784 15.2619 33.5506C14.8341 33.1228 14.5938 32.5425 14.5938 31.9375C14.5938 31.3325 14.8341 30.7522 15.2619 30.3244C15.6897 29.8966 16.27 29.6562 16.875 29.6562H35.125C35.73 29.6562 36.3103 29.8966 36.7381 30.3244C37.1659 30.7522 37.4062 31.3325 37.4062 31.9375ZM37.4062 41.0625C37.4062 41.6675 37.1659 42.2478 36.7381 42.6756C36.3103 43.1034 35.73 43.3438 35.125 43.3438H16.875C16.27 43.3438 15.6897 43.1034 15.2619 42.6756C14.8341 42.2478 14.5938 41.6675 14.5938 41.0625C14.5938 40.4575 14.8341 39.8772 15.2619 39.4494C15.6897 39.0216 16.27 38.7812 16.875 38.7812H35.125C35.73 38.7812 36.3103 39.0216 36.7381 39.4494C37.1659 39.8772 37.4062 40.4575 37.4062 41.0625Z" fill="#AC2624"/>
</svg>
