<svg width="60" height="58" viewBox="0 0 60 58" fill="none" xmlns="http://www.w3.org/2000/svg">
<path d="M55.0938 13.6875H45.9688V4.5625C45.9688 3.35245 45.4881 2.19196 44.6324 1.33633C43.7768 0.48069 42.6163 0 41.4062 0H4.90625C3.6962 0 2.53571 0.48069 1.68008 1.33633C0.82444 2.19196 0.34375 3.35245 0.34375 4.5625V41.0625C0.345089 41.4917 0.467471 41.9118 0.696836 42.2745C0.926201 42.6373 1.25324 42.928 1.64039 43.1132C2.02755 43.2985 2.4591 43.3707 2.88547 43.3217C3.31185 43.2727 3.71575 43.1044 4.05078 42.8362L14.0312 34.7891V43.3438C14.0312 44.5538 14.5119 45.7143 15.3676 46.5699C16.2232 47.4256 17.3837 47.9062 18.5938 47.9062H45.2815L55.9492 56.5237C56.3529 56.8502 56.8558 57.0292 57.375 57.0312C57.98 57.0312 58.5603 56.7909 58.9881 56.3631C59.4159 55.9353 59.6562 55.355 59.6562 54.75V18.25C59.6562 17.0399 59.1756 15.8795 58.3199 15.0238C57.4643 14.1682 56.3038 13.6875 55.0938 13.6875ZM12.4771 30.1638L4.90625 36.2861V4.5625H41.4062V29.6562H13.9115C13.3894 29.6563 12.8831 29.8355 12.4771 30.1638ZM55.0938 49.9736L47.5229 43.8513C47.1192 43.5248 46.6162 43.3458 46.0971 43.3438H18.5938V34.2188H41.4062C42.6163 34.2188 43.7768 33.7381 44.6324 32.8824C45.4881 32.0268 45.9688 30.8663 45.9688 29.6562V18.25H55.0938V49.9736Z" fill="#AC2624"/>
</svg>
