<svg width="18" height="18" viewBox="0 0 18 18" fill="none" xmlns="http://www.w3.org/2000/svg">
<g clip-path="url(#clip0_28_1217)">
<path d="M9.20348 0.00187513C4.21325 -0.101888 0.087188 3.85053 0.000204072 8.8217C-0.0867799 13.7948 3.81993 17.8962 8.7402 17.9981C13.8061 18.1019 17.8981 14.1872 17.9964 9.14054C18.0929 4.22407 14.1313 0.105638 9.20348 0.00187513ZM8.98035 16.4473C4.89778 16.4341 1.56213 13.108 1.55079 9.03866C1.53944 4.90702 4.87509 1.57152 9.00871 1.58095C13.1159 1.5885 16.4194 4.88061 16.4288 8.97263C16.4402 13.1043 13.0951 16.4605 8.98035 16.4473Z" fill="#AC2624"/>
<path d="M16.4286 8.97263C16.4399 13.1043 13.0948 16.4605 8.98013 16.4473C4.89756 16.4341 1.56191 13.108 1.55057 9.03866C1.53922 4.90702 4.87486 1.57152 9.00849 1.58095C13.1156 1.5885 16.4191 4.88061 16.4286 8.97263Z" fill="#F2F2F2"/>
<path d="M4.9126 10.9819C4.9126 10.763 4.97689 10.6065 5.10737 10.5102C5.23784 10.414 5.36454 10.365 5.48556 10.365H6.14928C6.48398 10.365 6.73737 10.5461 6.91323 10.9102C7.0872 11.2724 7.48051 11.4573 8.0894 11.4611H8.13479V9.69335C6.94537 9.44243 6.11525 9.11039 5.6444 8.69912C5.2057 8.3218 4.98635 7.85203 4.98635 7.29172C4.98635 6.58802 5.22461 6.03902 5.69923 5.64283C6.17386 5.24853 6.98698 5.02592 8.13479 4.97875V4.45616C8.13479 4.35617 8.16693 4.27505 8.23312 4.21091C8.29741 4.14865 8.37872 4.11658 8.47516 4.11658H8.88739V4.96743H9.19372V4.11658H9.60595C9.70617 4.11658 9.78937 4.14865 9.85366 4.21091C9.91796 4.27316 9.95199 4.35617 9.95199 4.45616V4.96743C10.7065 4.97498 11.3891 5.17496 11.9999 5.56548C12.6107 5.95601 12.917 6.44086 12.917 7.02005C12.917 7.23889 12.8527 7.39548 12.7222 7.48981C12.5918 7.58414 12.467 7.6313 12.3497 7.6313H11.686C11.3513 7.6313 11.1036 7.46151 10.9391 7.12004C10.7764 6.77856 10.4474 6.5899 9.95388 6.55217V8.29161C10.837 8.48782 11.5555 8.74062 12.1039 9.04814C12.7828 9.42168 13.1231 9.96879 13.1231 10.6857C13.1231 11.4026 12.883 11.961 12.4046 12.361C11.9261 12.761 11.1074 12.9798 9.95388 13.0175V13.5401C9.95388 13.6401 9.92174 13.7231 9.85555 13.7873C9.79126 13.8514 9.70806 13.8854 9.60784 13.8854H9.19561V13.0288H8.88928V13.8854H8.47705C8.37683 13.8854 8.29552 13.8533 8.23122 13.7873C8.16882 13.7231 8.13668 13.6401 8.13668 13.5401V13.0288H7.89652C7.13447 13.0288 6.44805 12.8345 5.83538 12.4459C5.22271 12.0573 4.91638 11.5705 4.91638 10.9838L4.9126 10.9819ZM7.08531 7.18041C7.08531 7.4766 7.43513 7.71997 8.13289 7.90863V6.54085H8.06671C7.41244 6.54085 7.08531 6.75404 7.08531 7.18041ZM8.88549 8.07465L9.19183 8.13502V6.53896H8.88549V8.07277V8.07465ZM8.88549 11.4592H9.19183V9.91974L8.88549 9.86503V11.4611V11.4592ZM9.9501 11.4592H10.039C10.6932 11.4592 11.0204 11.246 11.0204 10.8196C11.0204 10.5235 10.663 10.2801 9.9501 10.0914V11.4592Z" fill="#AC2624"/>
</g>
<defs>
<clipPath id="clip0_28_1217">
<rect width="18" height="18" fill="white"/>
</clipPath>
</defs>
</svg>
