<svg width="55" height="54" viewBox="0 0 55 54" fill="none" xmlns="http://www.w3.org/2000/svg">
<circle cx="27.5" cy="27" r="27" fill="#55ACEE"/>
<path d="M45.5 16.3261C44.2129 16.8728 42.8122 17.2663 41.3695 17.4195C42.8674 16.5432 43.9891 15.1588 44.5242 13.5261C43.1186 14.3494 41.5788 14.9268 39.973 15.2326C39.3019 14.526 38.4902 13.9632 37.5885 13.5791C36.6868 13.195 35.7145 12.9979 34.7321 13C30.7572 13 27.5604 16.1728 27.5604 20.0663C27.5604 20.613 27.6278 21.1598 27.7371 21.6858C21.7853 21.3793 16.477 18.5793 12.948 14.2923C12.305 15.3739 11.968 16.6053 11.9722 17.8586C11.9722 20.3107 13.2383 22.4728 15.1689 23.7444C14.0311 23.7003 12.92 23.3923 11.9259 22.8456V22.9326C11.9259 26.3663 14.3908 29.2118 17.6758 29.8663C17.059 30.024 16.4245 30.1048 15.7872 30.1065C15.3203 30.1065 14.8787 30.061 14.4328 29.9988C15.3414 32.7988 17.9871 34.8325 21.1375 34.8988C18.6727 36.8 15.5853 37.9183 12.233 37.9183C11.6315 37.9183 11.0763 37.8976 10.5 37.8314C13.6799 39.8402 17.4529 41 21.5161 41C34.7068 41 41.9247 30.2391 41.9247 20.8988C41.9247 20.5923 41.9247 20.2858 41.9037 19.9793C43.3001 18.9728 44.5242 17.726 45.5 16.3261Z" fill="white"/>
</svg>
