<svg width="21" height="28" viewBox="0 0 21 28" fill="none" xmlns="http://www.w3.org/2000/svg">
<path d="M20.4998 14C20.4994 12.4301 20.1292 10.8823 19.419 9.4822C18.7088 8.08208 17.6788 6.86899 16.4123 5.94125L15.6323 1.64375C15.5488 1.18269 15.3061 0.765567 14.9466 0.465157C14.587 0.164747 14.1333 0.000120828 13.6648 0H7.33479C6.86624 0.000120828 6.4126 0.164747 6.05302 0.465157C5.69344 0.765567 5.45075 1.18269 5.36729 1.64375L4.58729 5.94125C3.32047 6.86868 2.29013 8.0817 1.57989 9.48189C0.86965 10.8821 0.499512 12.43 0.499512 14C0.499512 15.57 0.86965 17.1179 1.57989 18.5181C2.29013 19.9183 3.32047 21.1313 4.58729 22.0588L5.36729 26.3563C5.45075 26.8173 5.69344 27.2344 6.05302 27.5348C6.4126 27.8353 6.86624 27.9999 7.33479 28H13.6648C14.1333 27.9999 14.587 27.8353 14.9466 27.5348C15.3061 27.2344 15.5488 26.8173 15.6323 26.3563L16.4123 22.0588C17.6788 21.131 18.7088 19.9179 19.419 18.5178C20.1292 17.1177 20.4994 15.5699 20.4998 14ZM7.33479 2H13.6648L14.1535 4.69375C11.8055 3.76878 9.19406 3.76878 6.84604 4.69375L7.33479 2ZM2.49979 14C2.49979 12.4177 2.96898 10.871 3.84803 9.55544C4.72709 8.23985 5.97651 7.21447 7.43832 6.60896C8.90013 6.00346 10.5087 5.84504 12.0605 6.15372C13.6124 6.4624 15.0378 7.22433 16.1566 8.34315C17.2755 9.46197 18.0374 10.8874 18.3461 12.4393C18.6548 13.9911 18.4963 15.5997 17.8908 17.0615C17.2853 18.5233 16.2599 19.7727 14.9444 20.6518C13.6288 21.5308 12.082 22 10.4998 22C8.37877 21.9977 6.34528 21.1541 4.8455 19.6543C3.34571 18.1545 2.50211 16.121 2.49979 14ZM13.6648 26H7.33479L6.84604 23.3062C9.19406 24.2312 11.8055 24.2312 14.1535 23.3062L13.6648 26ZM9.49979 14V9C9.49979 8.73478 9.60515 8.48043 9.79268 8.29289C9.98022 8.10536 10.2346 8 10.4998 8C10.765 8 11.0194 8.10536 11.2069 8.29289C11.3944 8.48043 11.4998 8.73478 11.4998 9V13H15.4998C15.765 13 16.0194 13.1054 16.2069 13.2929C16.3944 13.4804 16.4998 13.7348 16.4998 14C16.4998 14.2652 16.3944 14.5196 16.2069 14.7071C16.0194 14.8946 15.765 15 15.4998 15H10.4998C10.2346 15 9.98022 14.8946 9.79268 14.7071C9.60515 14.5196 9.49979 14.2652 9.49979 14Z" fill="#AC2624"/>
</svg>
