<svg width="23" height="22" viewBox="0 0 23 22" fill="none" xmlns="http://www.w3.org/2000/svg">
<path d="M20.5 0H2.5C1.96957 0 1.46086 0.210714 1.08579 0.585786C0.710714 0.960859 0.5 1.46957 0.5 2V20C0.5 20.5304 0.710714 21.0391 1.08579 21.4142C1.46086 21.7893 1.96957 22 2.5 22H20.5C21.0304 22 21.5391 21.7893 21.9142 21.4142C22.2893 21.0391 22.5 20.5304 22.5 20V2C22.5 1.46957 22.2893 0.960859 21.9142 0.585786C21.5391 0.210714 21.0304 0 20.5 0ZM20.5 10H12.5V2H20.5V10ZM10.5 2V10H2.5V2H10.5ZM2.5 12H10.5V20H2.5V12ZM20.5 20H12.5V12H20.5V20Z" fill="#AC2624"/>
</svg>
